<?xml version="1.0" standalone="no"?>
<!DOCTYPE svg PUBLIC "-//W3C//DTD SVG 20010904//EN"
 "http://www.w3.org/TR/2001/REC-SVG-20010904/DTD/svg10.dtd">
<svg version="1.0" xmlns="http://www.w3.org/2000/svg"
 width="320.000000pt" height="320.000000pt" viewBox="0 0 320.000000 320.000000"
 preserveAspectRatio="xMidYMid meet">
<metadata>
Created by potrace 1.11, written by Peter Selinger 2001-2013
</metadata>
<g transform="translate(0.000000,320.000000) scale(0.100000,-0.100000)"
fill="#000000" stroke="none">
<path d="M10 3186 c-6 -8 -10 -24 -8 -36 3 -20 6 -19 37 14 l35 36 -26 0 c-14
0 -31 -7 -38 -14z"/>
<path d="M61 3136 c-45 -46 -62 -69 -59 -85 3 -19 15 -10 88 64 74 75 82 85
59 85 -17 0 -44 -19 -88 -64z"/>
<path d="M112 3088 c-89 -88 -112 -116 -110 -135 3 -20 21 -6 138 112 114 114
131 135 110 135 -18 0 -55 -30 -138 -112z"/>
<path d="M161 3036 c-126 -126 -162 -168 -159 -185 2 -18 35 10 188 164 155
155 181 185 160 185 -19 0 -64 -39 -189 -164z"/>
<path d="M215 2991 c-115 -115 -211 -214 -213 -220 -18 -54 26 -18 237 194
189 190 229 235 210 235 -18 0 -78 -53 -234 -209z"/>
<path d="M262 2939 c-221 -218 -263 -264 -260 -285 3 -21 39 12 288 261 233
233 280 285 260 285 -19 0 -87 -62 -288 -261z"/>
<path d="M313 2890 c-258 -256 -313 -315 -313 -338 0 -23 46 19 335 308 184
184 335 336 335 337 0 2 -10 3 -22 3 -17 0 -112 -88 -335 -310z"/>
<path d="M362 2840 c-307 -305 -363 -364 -360 -385 3 -22 53 24 388 360 313
313 380 385 360 385 -19 0 -107 -82 -388 -360z"/>
<path d="M412 2788 c-338 -337 -412 -416 -410 -435 3 -20 71 45 438 412 349
350 429 435 410 435 -19 0 -119 -94 -438 -412z"/>
<path d="M462 2741 c-392 -390 -462 -464 -462 -488 0 -24 61 33 485 457 267
267 485 486 485 487 0 2 -10 3 -22 3 -17 0 -151 -127 -486 -459z"/>
<path d="M512 2688 c-412 -411 -512 -516 -512 -537 0 -22 25 -1 173 147 141
140 176 171 185 159 9 -11 -25 -49 -173 -196 -148 -146 -185 -188 -185 -209 0
-23 22 -5 173 146 134 134 175 170 185 160 9 -9 -29 -52 -173 -196 -145 -145
-185 -190 -185 -211 0 -22 24 -1 173 147 130 130 175 170 184 161 9 -9 -33
-57 -173 -195 -150 -150 -184 -189 -184 -211 0 -25 18 -9 169 141 130 130 173
167 187 162 14 -5 -18 -43 -167 -191 -137 -138 -185 -191 -187 -212 -3 -24 24
-1 171 145 140 140 176 171 185 160 9 -12 -25 -51 -173 -197 -148 -146 -185
-188 -185 -209 0 -23 22 -4 173 146 133 133 175 170 184 161 10 -10 -30 -55
-172 -197 -144 -144 -185 -191 -185 -211 0 -22 26 0 173 147 136 136 175 170
185 160 10 -10 -27 -50 -173 -194 -154 -152 -185 -186 -185 -210 0 -26 16 -13
173 144 136 136 175 170 185 160 10 -10 -27 -50 -173 -194 -153 -151 -185
-187 -185 -211 0 -25 18 -10 173 145 141 141 176 171 185 159 9 -11 -24 -49
-173 -195 -153 -149 -185 -185 -185 -209 0 -25 18 -10 173 145 137 136 176
170 184 160 9 -10 -29 -54 -173 -197 -145 -145 -184 -189 -184 -210 0 -22 24
-2 173 147 134 133 175 170 185 160 9 -9 -30 -53 -173 -194 -152 -150 -185
-188 -185 -211 0 -25 18 -10 173 145 134 134 175 170 185 160 9 -9 -30 -53
-173 -194 -152 -151 -185 -188 -185 -211 0 -25 18 -10 173 145 139 138 175
170 185 160 10 -10 -24 -49 -173 -195 -153 -150 -185 -186 -185 -210 0 -26 4
-24 73 45 58 57 76 70 84 60 9 -10 -8 -32 -73 -97 -62 -62 -84 -91 -84 -110 0
-23 7 -19 73 47 55 55 76 69 84 61 9 -9 -9 -32 -73 -94 -66 -65 -84 -89 -84
-111 0 -27 3 -25 73 44 56 55 75 70 84 61 9 -9 -8 -32 -72 -95 -66 -65 -85
-90 -85 -111 0 -26 4 -23 73 45 56 56 75 70 85 60 9 -9 -8 -30 -73 -94 -52
-51 -85 -91 -85 -103 0 -12 3 -21 8 -21 4 0 48 40 97 90 70 71 92 87 103 78
11 -9 -8 -33 -98 -123 -83 -84 -111 -117 -108 -133 2 -18 29 4 148 123 106
105 148 141 156 134 10 -8 -28 -52 -144 -170 -111 -114 -158 -168 -160 -187
-3 -22 34 10 196 171 160 159 201 196 210 185 9 -11 -31 -56 -198 -223 -165
-164 -210 -214 -210 -234 0 -22 39 13 250 224 194 194 251 245 256 232 5 -13
-56 -80 -247 -272 -223 -224 -283 -295 -252 -295 4 0 138 131 297 290 234 234
292 287 303 278 12 -9 -42 -68 -284 -310 -237 -237 -293 -298 -274 -298 17 0
73 49 212 187 434 434 438 438 445 420 5 -13 -66 -89 -285 -309 -234 -237
-286 -294 -269 -296 16 -3 92 67 334 309 251 251 314 309 320 295 5 -14 -57
-81 -285 -309 -243 -243 -289 -293 -270 -295 18 -3 85 59 335 309 245 245 315
309 320 296 5 -13 -63 -87 -285 -310 -232 -233 -286 -293 -270 -295 17 -3 191
166 776 750 415 414 756 755 758 757 2 2 11 1 20 -2 10 -5 -200 -222 -730
-754 -591 -594 -740 -749 -724 -751 17 -3 178 153 732 707 544 543 714 707
724 699 10 -8 -149 -172 -683 -707 -572 -572 -692 -697 -673 -699 18 -3 149
123 683 657 481 480 665 658 673 650 7 -7 -166 -188 -634 -657 -536 -537 -641
-648 -623 -650 19 -3 137 110 634 607 445 445 615 608 623 600 8 -8 -151 -173
-583 -607 -468 -471 -589 -598 -573 -600 16 -3 150 125 582 557 421 420 564
557 574 550 9 -8 -123 -146 -532 -557 -434 -435 -541 -548 -524 -550 16 -3
135 110 532 507 386 384 514 507 524 499 9 -7 -108 -131 -482 -507 -399 -400
-491 -497 -473 -499 16 -3 120 95 482 457 335 335 463 457 472 450 9 -7 -107
-130 -432 -457 -358 -361 -439 -448 -422 -450 16 -3 110 85 432 407 287 288
413 407 422 401 8 -7 -105 -127 -382 -408 -316 -319 -389 -398 -372 -400 16
-3 101 77 381 357 255 256 363 358 371 351 9 -6 -87 -110 -330 -357 -276 -280
-338 -349 -321 -351 16 -3 75 51 257 235 350 353 388 389 396 370 4 -11 -78
-100 -285 -309 -224 -226 -285 -294 -270 -296 14 -3 101 77 329 305 171 169
313 307 317 306 4 -1 9 -6 11 -11 1 -5 -127 -142 -287 -303 -231 -235 -285
-295 -268 -297 15 -3 92 68 326 302 168 168 309 309 313 312 4 4 10 -1 14 -10
5 -12 -69 -91 -285 -307 -160 -160 -291 -293 -291 -295 0 -2 10 -4 23 -4 16 0
108 86 331 310 170 170 313 307 318 304 4 -3 8 -11 8 -17 0 -7 -131 -142 -290
-302 -231 -231 -286 -291 -269 -293 16 -3 94 69 332 307 251 251 313 308 324
299 12 -9 -42 -67 -282 -307 -244 -245 -291 -297 -273 -299 17 -3 71 45 258
235 352 355 388 389 396 369 4 -12 -71 -93 -285 -308 -234 -237 -286 -294
-269 -296 16 -3 92 67 334 309 246 246 315 309 320 296 5 -14 -62 -86 -286
-310 -243 -243 -288 -293 -269 -295 18 -3 82 57 325 300 167 166 310 304 319
306 8 2 15 -2 15 -8 0 -6 -130 -142 -289 -303 -227 -229 -285 -293 -270 -295
16 -3 98 74 330 305 171 169 311 309 313 311 2 2 6 -4 10 -13 4 -11 -79 -101
-284 -308 -224 -227 -284 -293 -269 -295 15 -3 101 76 332 307 232 231 314
307 320 296 6 -11 -70 -93 -282 -307 -232 -235 -286 -294 -269 -296 16 -3 127
102 484 460 389 388 464 467 464 491 0 25 -16 11 -154 -127 -117 -118 -157
-152 -165 -143 -8 10 31 54 154 177 134 133 165 170 165 192 0 25 -16 12 -150
-122 -83 -83 -154 -150 -159 -150 -30 0 -4 32 145 181 115 115 164 170 164
186 0 13 -2 23 -5 23 -3 0 -49 -44 -103 -97 -165 -164 -200 -195 -213 -188 -7
5 50 68 156 175 135 135 166 172 163 191 -3 20 -17 9 -124 -96 -174 -172 -181
-178 -194 -170 -8 5 46 66 155 175 132 132 166 172 163 190 -3 19 -25 1 -152
-125 -104 -103 -153 -145 -164 -140 -12 4 27 49 152 174 131 131 167 173 164
190 -2 19 -26 -1 -155 -128 -114 -112 -154 -147 -162 -137 -8 9 32 55 154 176
116 116 165 171 165 187 0 13 -2 23 -5 23 -3 0 -72 -67 -154 -149 -111 -111
-152 -146 -160 -138 -9 9 31 54 155 178 134 134 165 171 162 189 -3 21 -23 4
-155 -127 -113 -114 -154 -149 -162 -139 -8 9 33 55 154 176 134 134 165 170
165 192 0 25 -16 12 -151 -123 -108 -108 -155 -149 -167 -144 -12 4 25 47 151
173 117 117 167 174 167 190 0 12 -2 22 -5 22 -4 0 -73 -67 -155 -150 -113
-113 -151 -146 -159 -137 -8 10 31 54 154 177 116 116 165 171 165 187 0 13
-2 23 -5 23 -3 0 -61 -55 -129 -122 -169 -168 -173 -171 -186 -163 -8 5 47 66
155 175 133 133 166 172 163 190 -3 20 -23 3 -151 -124 -81 -80 -151 -146
-156 -146 -29 0 -3 33 145 181 126 126 165 171 162 187 -2 18 -30 -5 -154
-128 -117 -116 -154 -147 -162 -137 -9 10 28 52 153 177 133 133 165 170 165
192 0 27 -2 26 -52 -27 -41 -43 -54 -52 -65 -43 -12 9 -2 24 51 77 50 50 66
73 66 94 0 28 -1 27 -50 -23 -35 -36 -56 -50 -67 -46 -13 5 -3 20 50 74 50 50
67 75 67 95 0 26 -1 26 -50 -23 -28 -28 -54 -50 -60 -50 -26 0 -13 23 45 80
49 48 65 71 65 92 0 27 -1 26 -50 -22 -28 -28 -55 -50 -60 -50 -26 0 -13 23
45 80 42 42 65 72 65 87 0 13 -3 23 -6 23 -4 0 -39 -34 -79 -75 -57 -59 -75
-72 -83 -62 -9 10 9 33 78 102 71 71 90 96 90 118 0 26 -11 17 -129 -102 -97
-96 -132 -126 -140 -117 -7 9 27 49 129 151 113 113 140 145 140 167 0 25 -20
9 -180 -150 -126 -126 -182 -176 -190 -168 -7 7 46 67 180 201 141 142 190
197 190 215 0 27 27 52 -284 -257 -130 -128 -177 -168 -185 -160 -9 9 49 72
230 253 189 189 240 246 237 263 -2 18 -51 -26 -279 -253 -206 -204 -280 -271
-288 -263 -9 9 63 86 280 303 228 228 290 296 287 313 -2 17 -62 -38 -330
-303 -240 -238 -329 -321 -337 -312 -7 8 78 100 315 336 264 265 320 326 303
328 -23 4 -80 -51 -535 -505 -130 -130 -175 -169 -183 -160 -8 10 69 92 309
332 176 176 320 324 320 328 1 33 -82 -40 -379 -335 -251 -249 -342 -333 -350
-325 -9 9 74 97 316 340 262 263 323 328 301 325 -20 -2 -113 -89 -366 -340
-252 -249 -343 -333 -351 -325 -9 9 74 97 316 339 268 269 323 328 303 328
-19 0 -102 -76 -367 -338 -242 -240 -345 -336 -353 -328 -7 7 85 106 317 338
267 268 323 328 303 328 -19 0 -103 -77 -367 -339 -247 -245 -345 -335 -352
-328 -8 8 79 102 316 339 268 268 323 328 303 328 -19 0 -103 -77 -367 -339
-249 -247 -345 -336 -352 -327 -7 9 80 103 317 340 263 263 322 327 300 324
-20 -2 -112 -87 -367 -340 -252 -250 -342 -333 -350 -325 -9 9 72 95 316 339
268 268 323 328 303 328 -19 0 -102 -77 -367 -339 -249 -247 -344 -336 -352
-328 -8 8 77 100 316 339 270 270 323 328 303 328 -20 0 -124 -98 -489 -461
-330 -327 -468 -458 -479 -454 -12 4 109 131 438 460 369 370 450 455 430 455
-19 0 -117 -91 -439 -410 -228 -226 -418 -409 -423 -408 -5 2 -9 8 -9 13 1 6
180 189 399 408 316 318 391 398 370 395 -20 -2 -118 -93 -388 -360 -198 -197
-364 -358 -368 -358 -5 0 -12 3 -16 7 -4 4 152 166 346 360 288 288 348 353
328 353 -19 0 -102 -76 -367 -339 -251 -249 -344 -336 -352 -328 -8 8 75 98
316 340 268 268 323 328 300 325 -21 -2 -107 -83 -367 -341 -258 -257 -341
-335 -346 -322 -5 12 77 100 312 336 176 176 321 322 323 325 2 2 -7 4 -20 4
-18 0 -108 -83 -367 -340 -251 -249 -344 -335 -349 -324 -6 15 110 136 505
527 67 67 122 125 122 130 0 33 -82 -40 -380 -337 -259 -258 -341 -334 -346
-322 -4 9 -5 19 -3 21 2 2 148 149 324 325 260 261 315 321 293 318 -21 -2
-110 -84 -366 -340 -263 -263 -341 -335 -350 -326 -10 10 60 85 315 340 273
273 324 328 302 328 -20 0 -95 -70 -362 -335 -185 -184 -341 -335 -347 -335
-5 0 -10 6 -10 12 0 7 145 158 322 335 264 264 318 323 298 323 -19 0 -102
-76 -367 -339 -251 -250 -344 -336 -352 -328 -9 9 75 97 316 339 268 268 323
328 303 328 -19 0 -102 -77 -368 -340 -246 -244 -344 -336 -349 -325 -3 9 -4
18 -2 20 2 2 148 149 324 325 259 261 315 321 293 318 -21 -2 -110 -85 -366
-340 -263 -262 -341 -335 -350 -326 -10 10 61 86 315 341 265 265 323 328 301
325 -21 -2 -110 -85 -363 -335 -184 -183 -339 -333 -345 -333 -5 0 -10 6 -10
12 0 7 145 158 322 335 271 271 319 323 297 323 -21 0 -126 -100 -537 -512z
m-103 -204 c-9 -11 -15 -12 -25 -3 -11 9 -12 15 -3 25 9 11 15 12 25 3 11 -9
12 -15 3 -25z m102 3 c-5 -5 -17 -7 -26 -3 -14 5 -15 9 -5 21 10 12 16 13 27
4 9 -8 10 -16 4 -22z m98 -3 c-9 -11 -15 -12 -25 -3 -11 9 -12 15 -3 25 9 11
15 12 25 3 11 -9 12 -15 3 -25z m111 16 c0 -4 -6 -13 -14 -19 -18 -15 -41 10
-25 26 12 12 39 7 39 -7z m89 -16 c-9 -11 -15 -12 -25 -3 -11 9 -12 15 -3 25
9 11 15 12 25 3 11 -9 12 -15 3 -25z m100 0 c-9 -11 -15 -12 -25 -3 -11 9 -12
15 -3 25 9 11 15 12 25 3 11 -9 12 -15 3 -25z m100 0 c-9 -11 -15 -12 -25 -3
-11 9 -12 15 -3 25 9 11 15 12 25 3 11 -9 12 -15 3 -25z m100 0 c-9 -11 -15
-12 -25 -3 -11 9 -12 15 -3 25 9 11 15 12 25 3 11 -9 12 -15 3 -25z m100 0
c-9 -11 -15 -11 -25 -3 -10 8 -11 14 -1 24 17 19 42 -2 26 -21z m100 0 c-9
-11 -15 -12 -25 -3 -11 9 -12 15 -3 25 9 11 15 12 25 3 11 -9 12 -15 3 -25z
m401 15 c0 -6 -73 -82 -161 -171 -120 -119 -164 -157 -170 -147 -6 10 36 59
153 176 147 147 178 172 178 142z m99 -15 c-9 -11 -15 -12 -25 -3 -11 9 -12
15 -3 25 9 11 15 12 25 3 11 -9 12 -15 3 -25z m97 1 c-5 -14 -9 -15 -21 -5
-12 10 -13 16 -4 27 15 18 34 1 25 -22z m103 -1 c-9 -11 -15 -12 -25 -3 -11 9
-12 15 -3 25 9 11 15 12 25 3 11 -9 12 -15 3 -25z m97 1 c-5 -14 -9 -15 -21
-5 -12 10 -13 16 -4 27 15 18 34 1 25 -22z m103 -1 c-9 -11 -15 -12 -25 -3
-11 9 -12 15 -3 25 9 11 15 12 25 3 11 -9 12 -15 3 -25z m100 0 c-9 -11 -15
-12 -25 -3 -11 9 -12 15 -3 25 9 11 15 12 25 3 11 -9 12 -15 3 -25z m100 0
c-9 -11 -15 -12 -25 -3 -11 9 -12 15 -3 25 9 11 15 12 25 3 11 -9 12 -15 3
-25z m100 0 c-9 -11 -15 -12 -25 -3 -11 9 -12 15 -3 25 9 11 15 12 25 3 11 -9
12 -15 3 -25z m100 0 c-9 -11 -15 -12 -25 -3 -11 9 -12 15 -3 25 9 11 15 12
25 3 11 -9 12 -15 3 -25z m100 0 c-9 -11 -15 -12 -25 -3 -11 9 -12 15 -3 25 9
11 15 12 25 3 11 -9 12 -15 3 -25z m97 1 c-5 -14 -9 -15 -21 -5 -12 10 -13 16
-4 27 15 18 34 1 25 -22z m103 -1 c-9 -11 -15 -12 -25 -3 -11 9 -12 15 -3 25
9 11 15 12 25 3 11 -9 12 -15 3 -25z m100 0 c-9 -11 -15 -12 -25 -3 -11 9 -12
15 -3 25 9 11 15 12 25 3 11 -9 12 -15 3 -25z m-2550 -50 c-9 -11 -15 -12 -25
-3 -11 9 -12 15 -3 25 9 11 15 12 25 3 11 -9 12 -15 3 -25z m102 3 c-5 -5 -17
-7 -26 -3 -14 5 -15 9 -5 21 10 12 16 13 27 4 9 -8 10 -16 4 -22z m98 -3 c-9
-11 -15 -12 -25 -3 -11 9 -12 15 -3 25 9 11 15 12 25 3 11 -9 12 -15 3 -25z
m102 3 c-5 -5 -17 -7 -26 -3 -14 5 -15 9 -5 21 10 12 16 13 27 4 9 -8 10 -16
4 -22z m98 -3 c-9 -11 -15 -12 -25 -3 -11 9 -12 15 -3 25 9 11 15 12 25 3 11
-9 12 -15 3 -25z m100 0 c-9 -11 -15 -12 -25 -3 -11 9 -12 15 -3 25 9 11 15
12 25 3 11 -9 12 -15 3 -25z m100 0 c-9 -11 -15 -12 -25 -3 -11 9 -12 15 -3
25 9 11 15 12 25 3 11 -9 12 -15 3 -25z m100 -1 c-15 -18 -34 -1 -25 22 5 14
9 15 21 5 12 -10 13 -16 4 -27z m100 1 c-9 -11 -15 -12 -25 -3 -11 9 -12 15
-3 25 9 11 15 12 25 3 11 -9 12 -15 3 -25z m100 0 c-9 -11 -15 -12 -25 -3 -11
9 -12 15 -3 25 9 11 15 12 25 3 11 -9 12 -15 3 -25z m400 0 c-9 -11 -15 -12
-25 -3 -11 9 -12 15 -3 25 9 11 15 12 25 3 11 -9 12 -15 3 -25z m98 1 c-17
-19 -42 2 -26 21 9 11 15 11 25 3 10 -8 11 -14 1 -24z m102 -1 c-9 -11 -15
-12 -25 -3 -11 9 -12 15 -3 25 9 11 15 12 25 3 11 -9 12 -15 3 -25z m100 0
c-9 -11 -15 -12 -25 -3 -11 9 -12 15 -3 25 9 11 15 12 25 3 11 -9 12 -15 3
-25z m100 0 c-9 -11 -15 -12 -25 -3 -11 9 -12 15 -3 25 9 11 15 12 25 3 11 -9
12 -15 3 -25z m100 0 c-9 -11 -15 -12 -25 -3 -11 9 -12 15 -3 25 9 11 15 12
25 3 11 -9 12 -15 3 -25z m100 0 c-9 -11 -15 -12 -25 -3 -11 9 -12 15 -3 25 9
11 15 12 25 3 11 -9 12 -15 3 -25z m100 0 c-9 -11 -15 -12 -25 -3 -11 9 -12
15 -3 25 9 11 15 12 25 3 11 -9 12 -15 3 -25z m100 0 c-9 -11 -15 -12 -25 -3
-11 9 -12 15 -3 25 9 11 15 12 25 3 11 -9 12 -15 3 -25z m100 0 c-9 -11 -15
-12 -25 -3 -11 9 -12 15 -3 25 9 11 15 12 25 3 11 -9 12 -15 3 -25z m95 2 c-5
-13 -9 -14 -20 -5 -11 9 -12 15 -3 26 15 17 32 2 23 -21z m105 -2 c-9 -11 -15
-12 -25 -3 -11 9 -12 15 -3 25 9 11 15 12 25 3 11 -9 12 -15 3 -25z m97 1 c-5
-14 -9 -15 -21 -5 -12 10 -13 16 -4 27 15 18 34 1 25 -22z m103 -1 c-9 -11
-15 -12 -25 -3 -11 9 -12 15 -3 25 9 11 15 12 25 3 11 -9 12 -15 3 -25z
m-2650 -50 c-9 -11 -15 -12 -25 -3 -11 9 -12 15 -3 25 9 11 15 12 25 3 11 -9
12 -15 3 -25z m101 10 c0 -14 -21 -19 -33 -7 -9 9 13 34 24 27 5 -3 9 -12 9
-20z m101 -7 c-5 -5 -17 -7 -26 -3 -14 5 -15 9 -5 21 10 12 16 13 27 4 9 -8
10 -16 4 -22z m98 -3 c-9 -11 -15 -12 -25 -3 -11 9 -12 15 -3 25 9 11 15 12
25 3 11 -9 12 -15 3 -25z m100 0 c-9 -11 -15 -12 -25 -3 -11 9 -12 15 -3 25 9
11 15 12 25 3 11 -9 12 -15 3 -25z m100 0 c-9 -11 -15 -12 -25 -3 -11 9 -12
15 -3 25 9 11 15 12 25 3 11 -9 12 -15 3 -25z m100 0 c-9 -11 -15 -12 -25 -3
-11 9 -12 15 -3 25 9 11 15 12 25 3 11 -9 12 -15 3 -25z m100 0 c-9 -11 -15
-12 -25 -3 -11 9 -12 15 -3 25 9 11 15 12 25 3 11 -9 12 -15 3 -25z m100 0
c-9 -11 -15 -12 -25 -3 -11 9 -12 15 -3 25 9 11 15 12 25 3 11 -9 12 -15 3
-25z m100 0 c-9 -11 -15 -12 -25 -3 -11 9 -12 15 -3 25 9 11 15 12 25 3 11 -9
12 -15 3 -25z m500 0 c-9 -11 -15 -12 -25 -3 -11 9 -12 15 -3 25 9 11 15 12
25 3 11 -9 12 -15 3 -25z m100 0 c-9 -11 -15 -12 -25 -3 -11 9 -12 15 -3 25 9
11 15 12 25 3 11 -9 12 -15 3 -25z m100 0 c-9 -11 -15 -12 -25 -3 -11 9 -12
15 -3 25 9 11 15 12 25 3 11 -9 12 -15 3 -25z m100 0 c-9 -11 -15 -12 -25 -3
-11 9 -12 15 -3 25 9 11 15 12 25 3 11 -9 12 -15 3 -25z m100 0 c-9 -11 -15
-12 -25 -3 -11 9 -12 15 -3 25 9 11 15 12 25 3 11 -9 12 -15 3 -25z m100 0
c-9 -11 -15 -12 -25 -3 -11 9 -12 15 -3 25 9 11 15 12 25 3 11 -9 12 -15 3
-25z m100 0 c-9 -11 -15 -12 -25 -3 -11 9 -12 15 -3 25 9 11 15 12 25 3 11 -9
12 -15 3 -25z m100 0 c-9 -11 -15 -12 -25 -3 -11 9 -12 15 -3 25 9 11 15 12
25 3 11 -9 12 -15 3 -25z m100 0 c-9 -11 -15 -12 -25 -3 -11 9 -12 15 -3 25 9
11 15 12 25 3 11 -9 12 -15 3 -25z m97 1 c-5 -14 -9 -15 -21 -5 -12 10 -13 16
-4 27 15 18 34 1 25 -22z m103 -1 c-9 -11 -15 -12 -25 -3 -11 9 -12 15 -3 25
9 11 15 12 25 3 11 -9 12 -15 3 -25z m97 1 c-5 -14 -9 -15 -21 -5 -12 10 -13
16 -4 27 15 18 34 1 25 -22z m103 -1 c-9 -11 -15 -12 -25 -3 -11 9 -12 15 -3
25 9 11 15 12 25 3 11 -9 12 -15 3 -25z m-1295 18 c5 -9 -307 -322 -321 -322
-31 0 -8 30 134 172 148 149 175 170 187 150z m-1258 -67 c-5 -14 -9 -15 -21
-5 -12 10 -13 16 -4 27 15 18 34 1 25 -22z m103 -1 c-9 -11 -15 -12 -25 -3
-11 9 -12 15 -3 25 9 11 15 12 25 3 11 -9 12 -15 3 -25z m102 3 c-5 -5 -17 -7
-26 -3 -14 5 -15 9 -5 21 10 12 16 13 27 4 9 -8 10 -16 4 -22z m98 -3 c-9 -11
-15 -12 -25 -3 -11 9 -12 15 -3 25 9 11 15 12 25 3 11 -9 12 -15 3 -25z m100
0 c-9 -11 -15 -12 -25 -3 -11 9 -12 15 -3 25 9 11 15 12 25 3 11 -9 12 -15 3
-25z m100 0 c-9 -11 -15 -12 -25 -3 -11 9 -12 15 -3 25 9 11 15 12 25 3 11 -9
12 -15 3 -25z m100 0 c-9 -11 -15 -12 -25 -3 -11 9 -12 15 -3 25 9 11 15 12
25 3 11 -9 12 -15 3 -25z m100 0 c-9 -11 -15 -12 -25 -3 -11 9 -12 15 -3 25 9
11 15 12 25 3 11 -9 12 -15 3 -25z m100 0 c-9 -11 -15 -12 -25 -3 -11 9 -12
15 -3 25 9 11 15 12 25 3 11 -9 12 -15 3 -25z m100 0 c-9 -11 -15 -12 -25 -3
-11 9 -12 15 -3 25 9 11 15 12 25 3 11 -9 12 -15 3 -25z m500 0 c-9 -11 -15
-12 -25 -3 -11 9 -12 15 -3 25 9 11 15 12 25 3 11 -9 12 -15 3 -25z m100 0
c-9 -11 -15 -12 -25 -3 -11 9 -12 15 -3 25 9 11 15 12 25 3 11 -9 12 -15 3
-25z m100 0 c-9 -11 -15 -12 -25 -3 -11 9 -12 15 -3 25 9 11 15 12 25 3 11 -9
12 -15 3 -25z m100 0 c-9 -11 -15 -12 -25 -3 -11 9 -12 15 -3 25 9 11 15 12
25 3 11 -9 12 -15 3 -25z m97 1 c-5 -14 -9 -15 -21 -5 -12 10 -13 16 -4 27 15
18 34 1 25 -22z m103 -1 c-9 -11 -15 -12 -25 -3 -11 9 -12 15 -3 25 9 11 15
12 25 3 11 -9 12 -15 3 -25z m100 0 c-9 -11 -15 -12 -25 -3 -11 9 -12 15 -3
25 9 11 15 12 25 3 11 -9 12 -15 3 -25z m100 0 c-9 -11 -15 -12 -25 -3 -11 9
-12 15 -3 25 9 11 15 12 25 3 11 -9 12 -15 3 -25z m100 0 c-9 -11 -15 -12 -25
-3 -11 9 -12 15 -3 25 9 11 15 12 25 3 11 -9 12 -15 3 -25z m100 0 c-9 -11
-15 -12 -25 -3 -11 9 -12 15 -3 25 9 11 15 12 25 3 11 -9 12 -15 3 -25z m100
0 c-9 -11 -15 -12 -25 -3 -11 9 -12 15 -3 25 9 11 15 12 25 3 11 -9 12 -15 3
-25z m100 0 c-9 -11 -15 -12 -25 -3 -11 9 -12 15 -3 25 9 11 15 12 25 3 11 -9
12 -15 3 -25z m101 10 c0 -14 -21 -19 -33 -7 -9 9 13 34 24 27 5 -3 9 -12 9
-20z m-1300 3 c0 -8 -3 -17 -7 -20 -9 -9 -34 13 -27 24 8 14 34 11 34 -4z
m-1348 -59 c-5 -5 -16 -6 -26 -2 -13 5 -14 9 -5 20 9 11 15 12 26 3 8 -7 10
-16 5 -21z m97 -4 c-9 -11 -15 -12 -25 -3 -11 9 -12 15 -3 25 9 11 15 12 25 3
11 -9 12 -15 3 -25z m100 0 c-9 -11 -15 -12 -25 -3 -11 9 -12 15 -3 25 9 11
15 12 25 3 11 -9 12 -15 3 -25z m100 0 c-9 -11 -15 -12 -25 -3 -11 9 -12 15
-3 25 9 11 15 12 25 3 11 -9 12 -15 3 -25z m100 0 c-9 -11 -15 -12 -25 -3 -11
9 -12 15 -3 25 9 11 15 12 25 3 11 -9 12 -15 3 -25z m100 0 c-9 -11 -15 -12
-25 -3 -11 9 -12 15 -3 25 9 11 15 12 25 3 11 -9 12 -15 3 -25z m100 0 c-9
-11 -15 -12 -25 -3 -11 9 -12 15 -3 25 9 11 15 12 25 3 11 -9 12 -15 3 -25z
m100 0 c-9 -11 -15 -12 -25 -3 -11 9 -12 15 -3 25 9 11 15 12 25 3 11 -9 12
-15 3 -25z m100 0 c-9 -11 -15 -12 -25 -3 -11 9 -12 15 -3 25 9 11 15 12 25 3
11 -9 12 -15 3 -25z m97 1 c-5 -14 -9 -15 -21 -5 -12 10 -13 16 -4 27 15 18
34 1 25 -22z m500 0 c-5 -14 -9 -15 -21 -5 -12 10 -13 16 -4 27 15 18 34 1 25
-22z m100 0 c-5 -14 -9 -15 -21 -5 -12 10 -13 16 -4 27 15 18 34 1 25 -22z
m103 -1 c-9 -11 -15 -12 -25 -3 -11 9 -12 15 -3 25 9 11 15 12 25 3 11 -9 12
-15 3 -25z m100 0 c-9 -11 -15 -12 -25 -3 -11 9 -12 15 -3 25 9 11 15 12 25 3
11 -9 12 -15 3 -25z m97 1 c-5 -14 -9 -15 -21 -5 -12 10 -13 16 -4 27 15 18
34 1 25 -22z m203 -1 c-9 -11 -15 -12 -25 -3 -11 9 -12 15 -3 25 9 11 15 12
25 3 11 -9 12 -15 3 -25z m100 0 c-9 -11 -15 -12 -25 -3 -11 9 -12 15 -3 25 9
11 15 12 25 3 11 -9 12 -15 3 -25z m97 1 c-5 -14 -9 -15 -21 -5 -12 10 -13 16
-4 27 15 18 34 1 25 -22z m103 -1 c-9 -11 -15 -12 -25 -3 -11 9 -12 15 -3 25
9 11 15 12 25 3 11 -9 12 -15 3 -25z m100 0 c-9 -11 -15 -12 -25 -3 -11 9 -12
15 -3 25 9 11 15 12 25 3 11 -9 12 -15 3 -25z m100 0 c-9 -11 -15 -12 -25 -3
-11 9 -12 15 -3 25 9 11 15 12 25 3 11 -9 12 -15 3 -25z m97 1 c-5 -14 -9 -15
-21 -5 -12 10 -13 16 -4 27 15 18 34 1 25 -22z m-1296 15 c0 -5 -70 -79 -156
-165 -109 -109 -161 -154 -172 -150 -12 4 26 48 143 165 146 146 185 178 185
150z m603 3 c4 -3 2 -12 -4 -20 -9 -10 -15 -10 -25 -2 -8 6 -11 15 -8 20 6 11
28 12 37 2z m-1852 -66 c-5 -5 -17 -7 -26 -3 -14 5 -15 9 -5 21 10 12 16 13
27 4 9 -8 10 -16 4 -22z m98 -3 c-9 -11 -15 -12 -25 -3 -11 9 -12 15 -3 25 9
11 15 12 25 3 11 -9 12 -15 3 -25z m100 0 c-9 -11 -15 -12 -25 -3 -11 9 -12
15 -3 25 9 11 15 12 25 3 11 -9 12 -15 3 -25z m100 0 c-9 -11 -15 -12 -25 -3
-11 9 -12 15 -3 25 9 11 15 12 25 3 11 -9 12 -15 3 -25z m100 0 c-9 -11 -15
-12 -25 -3 -11 9 -12 15 -3 25 9 11 15 12 25 3 11 -9 12 -15 3 -25z m100 0
c-9 -11 -15 -12 -25 -3 -11 9 -12 15 -3 25 9 11 15 12 25 3 11 -9 12 -15 3
-25z m100 0 c-9 -11 -15 -12 -25 -3 -11 9 -12 15 -3 25 9 11 15 12 25 3 11 -9
12 -15 3 -25z m100 0 c-9 -11 -15 -12 -25 -3 -11 9 -12 15 -3 25 9 11 15 12
25 3 11 -9 12 -15 3 -25z m100 0 c-9 -11 -15 -12 -25 -3 -11 9 -12 15 -3 25 9
11 15 12 25 3 11 -9 12 -15 3 -25z m100 0 c-9 -11 -15 -12 -25 -3 -11 9 -12
15 -3 25 9 11 15 12 25 3 11 -9 12 -15 3 -25z m396 -5 c-5 -7 -11 -6 -21 2
-11 9 -12 15 -2 26 10 12 13 12 20 -1 5 -9 6 -21 3 -27z m101 6 c-5 -14 -9
-15 -21 -5 -12 10 -13 16 -4 27 15 18 34 1 25 -22z m103 -1 c-9 -11 -15 -12
-25 -3 -11 9 -12 15 -3 25 9 11 15 12 25 3 11 -9 12 -15 3 -25z m100 0 c-9
-11 -15 -12 -25 -3 -11 9 -12 15 -3 25 9 11 15 12 25 3 11 -9 12 -15 3 -25z
m100 0 c-9 -11 -15 -12 -25 -3 -11 9 -12 15 -3 25 9 11 15 12 25 3 11 -9 12
-15 3 -25z m100 0 c-9 -11 -15 -12 -25 -3 -11 9 -12 15 -3 25 9 11 15 12 25 3
11 -9 12 -15 3 -25z m100 0 c-9 -11 -15 -12 -25 -3 -11 9 -12 15 -3 25 9 11
15 12 25 3 11 -9 12 -15 3 -25z m100 0 c-9 -11 -15 -12 -25 -3 -11 9 -12 15
-3 25 9 11 15 12 25 3 11 -9 12 -15 3 -25z m100 0 c-9 -11 -15 -12 -25 -3 -11
9 -12 15 -3 25 9 11 15 12 25 3 11 -9 12 -15 3 -25z m100 0 c-9 -11 -15 -12
-25 -3 -11 9 -12 15 -3 25 9 11 15 12 25 3 11 -9 12 -15 3 -25z m99 -1 c-10
-12 -14 -12 -27 2 -14 14 -14 17 -1 25 21 13 44 -8 28 -27z m101 1 c-9 -11
-15 -12 -25 -3 -11 9 -12 15 -3 25 9 11 15 12 25 3 11 -9 12 -15 3 -25z m102
3 c-5 -5 -17 -7 -26 -3 -14 5 -15 9 -5 21 10 12 16 13 27 4 9 -8 10 -16 4 -22z
m98 -3 c-9 -11 -15 -12 -25 -3 -11 9 -12 15 -3 25 9 11 15 12 25 3 11 -9 12
-15 3 -25z m-2650 -50 c-9 -11 -15 -12 -25 -3 -11 9 -12 15 -3 25 9 11 15 12
25 3 11 -9 12 -15 3 -25z m102 3 c-5 -5 -17 -7 -26 -3 -14 5 -15 9 -5 21 10
12 16 13 27 4 9 -8 10 -16 4 -22z m98 -3 c-9 -11 -15 -12 -25 -3 -11 9 -12 15
-3 25 9 11 15 12 25 3 11 -9 12 -15 3 -25z m100 0 c-9 -11 -15 -12 -25 -3 -11
9 -12 15 -3 25 9 11 15 12 25 3 11 -9 12 -15 3 -25z m102 3 c-5 -5 -17 -7 -26
-3 -14 5 -15 9 -5 21 10 12 16 13 27 4 9 -8 10 -16 4 -22z m98 -3 c-9 -11 -15
-12 -25 -3 -11 9 -12 15 -3 25 9 11 15 12 25 3 11 -9 12 -15 3 -25z m100 0
c-9 -11 -15 -12 -25 -3 -11 9 -12 15 -3 25 9 11 15 12 25 3 11 -9 12 -15 3
-25z m100 0 c-9 -11 -15 -12 -25 -3 -11 9 -12 15 -3 25 9 11 15 12 25 3 11 -9
12 -15 3 -25z m97 1 c-5 -14 -9 -15 -21 -5 -12 10 -13 16 -4 27 15 18 34 1 25
-22z m600 0 c-5 -14 -9 -15 -21 -5 -12 10 -13 16 -4 27 15 18 34 1 25 -22z
m103 -1 c-9 -11 -15 -12 -25 -3 -11 9 -12 15 -3 25 9 11 15 12 25 3 11 -9 12
-15 3 -25z m100 0 c-9 -11 -15 -12 -25 -3 -11 9 -12 15 -3 25 9 11 15 12 25 3
11 -9 12 -15 3 -25z m100 0 c-9 -11 -15 -12 -25 -3 -11 9 -12 15 -3 25 9 11
15 12 25 3 11 -9 12 -15 3 -25z m100 0 c-9 -11 -15 -12 -25 -3 -11 9 -12 15
-3 25 9 11 15 12 25 3 11 -9 12 -15 3 -25z m100 0 c-9 -11 -15 -12 -25 -3 -11
9 -12 15 -3 25 9 11 15 12 25 3 11 -9 12 -15 3 -25z m100 0 c-9 -11 -15 -12
-25 -3 -11 9 -12 15 -3 25 9 11 15 12 25 3 11 -9 12 -15 3 -25z m100 0 c-9
-11 -15 -12 -25 -3 -11 9 -12 15 -3 25 9 11 15 12 25 3 11 -9 12 -15 3 -25z
m100 0 c-9 -11 -15 -12 -25 -3 -11 9 -12 15 -3 25 9 11 15 12 25 3 11 -9 12
-15 3 -25z m97 1 c-5 -14 -9 -15 -21 -5 -12 10 -13 16 -4 27 15 18 34 1 25
-22z m103 -1 c-9 -11 -15 -12 -25 -3 -11 9 -12 15 -3 25 9 11 15 12 25 3 11
-9 12 -15 3 -25z m100 0 c-9 -11 -15 -12 -25 -3 -11 9 -12 15 -3 25 9 11 15
12 25 3 11 -9 12 -15 3 -25z m100 0 c-9 -11 -15 -12 -25 -3 -11 9 -12 15 -3
25 9 11 15 12 25 3 11 -9 12 -15 3 -25z m-1696 19 c4 -3 2 -12 -4 -20 -9 -10
-15 -10 -25 -2 -8 6 -11 15 -8 20 6 11 28 12 37 2z m397 -4 c0 -6 -70 -80
-156 -166 -111 -110 -160 -153 -172 -148 -12 4 23 45 143 165 147 148 185 178
185 149z m-1249 -62 c-5 -5 -17 -7 -26 -3 -14 5 -15 9 -5 21 10 12 16 13 27 4
9 -8 10 -16 4 -22z m100 0 c-5 -5 -17 -7 -26 -3 -14 5 -15 9 -5 21 10 12 16
13 27 4 9 -8 10 -16 4 -22z m98 -3 c-9 -11 -15 -12 -25 -3 -11 9 -12 15 -3 25
9 11 15 12 25 3 11 -9 12 -15 3 -25z m100 0 c-9 -11 -15 -12 -25 -3 -11 9 -12
15 -3 25 9 11 15 12 25 3 11 -9 12 -15 3 -25z m100 0 c-9 -11 -15 -12 -25 -3
-11 9 -12 15 -3 25 9 11 15 12 25 3 11 -9 12 -15 3 -25z m100 0 c-9 -11 -15
-12 -25 -3 -11 9 -12 15 -3 25 9 11 15 12 25 3 11 -9 12 -15 3 -25z m100 0
c-9 -11 -15 -12 -25 -3 -11 9 -12 15 -3 25 9 11 15 12 25 3 11 -9 12 -15 3
-25z m100 0 c-9 -11 -15 -12 -25 -3 -11 9 -12 15 -3 25 9 11 15 12 25 3 11 -9
12 -15 3 -25z m200 0 c-9 -11 -15 -12 -25 -3 -11 9 -12 15 -3 25 9 11 15 12
25 3 11 -9 12 -15 3 -25z m396 -5 c-5 -7 -11 -6 -21 2 -11 9 -12 15 -2 26 10
12 13 12 20 -1 5 -9 6 -21 3 -27z m104 5 c-9 -11 -15 -12 -25 -3 -11 9 -12 15
-3 25 9 11 15 12 25 3 11 -9 12 -15 3 -25z m97 1 c-5 -14 -9 -15 -21 -5 -12
10 -13 16 -4 27 15 18 34 1 25 -22z m103 -1 c-9 -11 -15 -12 -25 -3 -11 9 -12
15 -3 25 9 11 15 12 25 3 11 -9 12 -15 3 -25z m100 0 c-9 -11 -15 -12 -25 -3
-11 9 -12 15 -3 25 9 11 15 12 25 3 11 -9 12 -15 3 -25z m100 0 c-9 -11 -15
-12 -25 -3 -11 9 -12 15 -3 25 9 11 15 12 25 3 11 -9 12 -15 3 -25z m100 0
c-9 -11 -15 -12 -25 -3 -11 9 -12 15 -3 25 9 11 15 12 25 3 11 -9 12 -15 3
-25z m100 0 c-9 -11 -15 -12 -25 -3 -11 9 -12 15 -3 25 9 11 15 12 25 3 11 -9
12 -15 3 -25z m100 0 c-9 -11 -15 -12 -25 -3 -11 9 -12 15 -3 25 9 11 15 12
25 3 11 -9 12 -15 3 -25z m100 0 c-9 -11 -15 -12 -25 -3 -11 9 -12 15 -3 25 9
11 15 12 25 3 11 -9 12 -15 3 -25z m100 0 c-9 -11 -15 -12 -25 -3 -11 9 -12
15 -3 25 9 11 15 12 25 3 11 -9 12 -15 3 -25z m98 1 c-17 -19 -42 2 -26 21 9
11 15 11 25 3 10 -8 11 -14 1 -24z m102 -1 c-9 -11 -15 -12 -25 -3 -11 9 -12
15 -3 25 9 11 15 12 25 3 11 -9 12 -15 3 -25z m100 0 c-9 -11 -15 -12 -25 -3
-11 9 -12 15 -3 25 9 11 15 12 25 3 11 -9 12 -15 3 -25z m-1796 19 c9 -9 -13
-34 -24 -27 -14 8 -11 34 4 34 8 0 17 -3 20 -7z m-854 -69 c-9 -11 -15 -12
-25 -3 -11 9 -12 15 -3 25 9 11 15 12 25 3 11 -9 12 -15 3 -25z m100 0 c-9
-11 -15 -12 -25 -3 -11 9 -12 15 -3 25 9 11 15 12 25 3 11 -9 12 -15 3 -25z
m102 3 c-5 -5 -17 -7 -26 -3 -14 5 -15 9 -5 21 10 12 16 13 27 4 9 -8 10 -16
4 -22z m98 -3 c-9 -11 -15 -12 -25 -3 -11 9 -12 15 -3 25 9 11 15 12 25 3 11
-9 12 -15 3 -25z m100 0 c-9 -11 -15 -12 -25 -3 -11 9 -12 15 -3 25 9 11 15
12 25 3 11 -9 12 -15 3 -25z m100 0 c-9 -11 -15 -12 -25 -3 -11 9 -12 15 -3
25 9 11 15 12 25 3 11 -9 12 -15 3 -25z m100 0 c-9 -11 -15 -12 -25 -3 -11 9
-12 15 -3 25 9 11 15 12 25 3 11 -9 12 -15 3 -25z m100 0 c-9 -11 -15 -12 -25
-3 -11 9 -12 15 -3 25 9 11 15 12 25 3 11 -9 12 -15 3 -25z m100 0 c-9 -11
-15 -12 -25 -3 -11 9 -12 15 -3 25 9 11 15 12 25 3 11 -9 12 -15 3 -25z m97 1
c-5 -14 -9 -15 -21 -5 -12 10 -13 16 -4 27 15 18 34 1 25 -22z m404 15 c0 -6
-70 -80 -156 -166 -111 -110 -161 -154 -172 -149 -12 4 26 47 148 170 148 148
180 174 180 145z m100 -1 c0 -12 -406 -419 -418 -419 -31 0 0 37 189 226 193
193 229 224 229 193z m99 -15 c-9 -11 -15 -12 -25 -3 -11 9 -12 15 -3 25 9 11
15 12 25 3 11 -9 12 -15 3 -25z m300 0 c-9 -11 -15 -12 -25 -3 -11 9 -12 15
-3 25 9 11 15 12 25 3 11 -9 12 -15 3 -25z m100 0 c-9 -11 -15 -12 -25 -3 -11
9 -12 15 -3 25 9 11 15 12 25 3 11 -9 12 -15 3 -25z m97 1 c-5 -14 -9 -15 -21
-5 -12 10 -13 16 -4 27 15 18 34 1 25 -22z m200 0 c-5 -14 -9 -15 -21 -5 -12
10 -13 16 -4 27 15 18 34 1 25 -22z m103 -1 c-9 -11 -15 -12 -25 -3 -11 9 -12
15 -3 25 9 11 15 12 25 3 11 -9 12 -15 3 -25z m97 1 c-5 -14 -9 -15 -21 -5
-12 10 -13 16 -4 27 15 18 34 1 25 -22z m103 -1 c-9 -11 -15 -12 -25 -3 -11 9
-12 15 -3 25 9 11 15 12 25 3 11 -9 12 -15 3 -25z m98 25 c9 -9 8 -15 0 -24
-15 -16 -38 0 -30 21 6 17 15 18 30 3z m-997 -12 c0 -8 -3 -17 -7 -20 -9 -9
-34 13 -27 24 8 14 34 11 34 -4z m103 6 c4 -3 2 -12 -4 -20 -9 -10 -15 -10
-25 -2 -8 6 -11 15 -8 20 6 11 28 12 37 2z m400 0 c4 -3 2 -12 -4 -20 -9 -10
-15 -10 -25 -2 -8 6 -11 15 -8 20 6 11 28 12 37 2z m-2054 -69 c-9 -11 -15
-12 -25 -3 -11 9 -12 15 -3 25 9 11 15 12 25 3 11 -9 12 -15 3 -25z m100 0
c-9 -11 -15 -12 -25 -3 -11 9 -12 15 -3 25 9 11 15 12 25 3 11 -9 12 -15 3
-25z m102 3 c-5 -5 -17 -7 -26 -3 -14 5 -15 9 -5 21 10 12 16 13 27 4 9 -8 10
-16 4 -22z m98 -3 c-9 -11 -15 -12 -25 -3 -11 9 -12 15 -3 25 9 11 15 12 25 3
11 -9 12 -15 3 -25z m100 0 c-9 -11 -15 -12 -25 -3 -11 9 -12 15 -3 25 9 11
15 12 25 3 11 -9 12 -15 3 -25z m100 0 c-9 -11 -15 -12 -25 -3 -11 9 -12 15
-3 25 9 11 15 12 25 3 11 -9 12 -15 3 -25z m100 0 c-9 -11 -15 -12 -25 -3 -11
9 -12 15 -3 25 9 11 15 12 25 3 11 -9 12 -15 3 -25z m100 0 c-9 -11 -15 -12
-25 -3 -11 9 -12 15 -3 25 9 11 15 12 25 3 11 -9 12 -15 3 -25z m100 0 c-9
-11 -15 -12 -25 -3 -11 9 -12 15 -3 25 9 11 15 12 25 3 11 -9 12 -15 3 -25z
m97 1 c-5 -14 -9 -15 -21 -5 -12 10 -13 16 -4 27 15 18 34 1 25 -22z m500 0
c-5 -14 -9 -15 -21 -5 -12 10 -13 16 -4 27 15 18 34 1 25 -22z m99 -6 c-5 -7
-11 -6 -21 2 -11 9 -12 15 -2 26 10 12 13 12 20 -1 5 -9 6 -21 3 -27z m204 5
c-9 -11 -15 -12 -25 -3 -11 9 -12 15 -3 25 9 11 15 12 25 3 11 -9 12 -15 3
-25z m100 0 c-9 -11 -15 -12 -25 -3 -11 9 -12 15 -3 25 9 11 15 12 25 3 11 -9
12 -15 3 -25z m100 0 c-9 -11 -15 -12 -25 -3 -11 9 -12 15 -3 25 9 11 15 12
25 3 11 -9 12 -15 3 -25z m200 0 c-9 -11 -15 -12 -25 -3 -11 9 -12 15 -3 25 9
11 15 12 25 3 11 -9 12 -15 3 -25z m100 0 c-9 -11 -15 -12 -25 -3 -11 9 -12
15 -3 25 9 11 15 12 25 3 11 -9 12 -15 3 -25z m97 1 c-5 -14 -9 -15 -21 -5
-12 10 -13 16 -4 27 15 18 34 1 25 -22z m103 -1 c-9 -11 -15 -12 -25 -3 -11 9
-12 15 -3 25 9 11 15 12 25 3 11 -9 12 -15 3 -25z m100 0 c-9 -11 -15 -12 -25
-3 -11 9 -12 15 -3 25 9 11 15 12 25 3 11 -9 12 -15 3 -25z m-905 20 c13 -5
14 -9 5 -20 -9 -11 -15 -11 -25 -3 -8 6 -11 15 -8 20 6 11 8 11 28 3z m409 -1
c4 -3 2 -12 -4 -20 -9 -10 -15 -10 -25 -2 -8 6 -11 15 -8 20 6 11 28 12 37 2z
m-2054 -69 c-9 -11 -15 -12 -25 -3 -11 9 -12 15 -3 25 9 11 15 12 25 3 11 -9
12 -15 3 -25z m100 0 c-9 -11 -15 -12 -25 -3 -11 9 -12 15 -3 25 9 11 15 12
25 3 11 -9 12 -15 3 -25z m100 0 c-9 -11 -15 -12 -25 -3 -11 9 -12 15 -3 25 9
11 15 12 25 3 11 -9 12 -15 3 -25z m100 0 c-9 -11 -15 -12 -25 -3 -11 9 -12
15 -3 25 9 11 15 12 25 3 11 -9 12 -15 3 -25z m100 0 c-9 -11 -15 -12 -25 -3
-11 9 -12 15 -3 25 9 11 15 12 25 3 11 -9 12 -15 3 -25z m100 0 c-9 -11 -15
-12 -25 -3 -11 9 -12 15 -3 25 9 11 15 12 25 3 11 -9 12 -15 3 -25z m100 0
c-9 -11 -15 -12 -25 -3 -11 9 -12 15 -3 25 9 11 15 12 25 3 11 -9 12 -15 3
-25z m100 0 c-9 -11 -15 -12 -25 -3 -11 9 -12 15 -3 25 9 11 15 12 25 3 11 -9
12 -15 3 -25z m100 0 c-9 -11 -15 -12 -25 -3 -11 9 -12 15 -3 25 9 11 15 12
25 3 11 -9 12 -15 3 -25z m100 0 c-9 -11 -15 -12 -25 -3 -11 9 -12 15 -3 25 9
11 15 12 25 3 11 -9 12 -15 3 -25z m300 -195 c-116 -115 -214 -209 -218 -209
-30 0 3 39 191 227 158 158 215 210 224 202 10 -8 -39 -62 -197 -220z m397
196 c-5 -14 -9 -15 -21 -5 -12 10 -13 16 -4 27 15 18 34 1 25 -22z m103 -1
c-9 -11 -15 -12 -25 -3 -11 9 -12 15 -3 25 9 11 15 12 25 3 11 -9 12 -15 3
-25z m100 0 c-9 -11 -15 -12 -25 -3 -11 9 -12 15 -3 25 9 11 15 12 25 3 11 -9
12 -15 3 -25z m100 0 c-9 -11 -15 -12 -25 -3 -11 9 -12 15 -3 25 9 11 15 12
25 3 11 -9 12 -15 3 -25z m100 0 c-9 -11 -15 -12 -25 -3 -11 9 -12 15 -3 25 9
11 15 12 25 3 11 -9 12 -15 3 -25z m100 0 c-9 -11 -15 -12 -25 -3 -11 9 -12
15 -3 25 9 11 15 12 25 3 11 -9 12 -15 3 -25z m100 0 c-9 -11 -15 -12 -25 -3
-11 9 -12 15 -3 25 9 11 15 12 25 3 11 -9 12 -15 3 -25z m97 1 c-5 -14 -9 -15
-21 -5 -12 10 -13 16 -4 27 15 18 34 1 25 -22z m103 -1 c-9 -11 -15 -12 -25
-3 -11 9 -12 15 -3 25 9 11 15 12 25 3 11 -9 12 -15 3 -25z m97 1 c-5 -14 -9
-15 -21 -5 -12 10 -13 16 -4 27 15 18 34 1 25 -22z m-996 15 c0 -6 -115 -126
-256 -266 -186 -186 -260 -254 -272 -249 -12 4 49 71 243 265 143 143 266 260
272 260 7 0 13 -5 13 -10z m-1451 -66 c-9 -11 -15 -12 -25 -3 -11 9 -12 15 -3
25 9 11 15 12 25 3 11 -9 12 -15 3 -25z m100 0 c-9 -11 -15 -12 -25 -3 -11 9
-12 15 -3 25 9 11 15 12 25 3 11 -9 12 -15 3 -25z m100 0 c-9 -11 -15 -12 -25
-3 -11 9 -12 15 -3 25 9 11 15 12 25 3 11 -9 12 -15 3 -25z m100 0 c-9 -11
-15 -12 -25 -3 -11 9 -12 15 -3 25 9 11 15 12 25 3 11 -9 12 -15 3 -25z m100
0 c-9 -11 -15 -12 -25 -3 -11 9 -12 15 -3 25 9 11 15 12 25 3 11 -9 12 -15 3
-25z m100 0 c-9 -11 -15 -12 -25 -3 -11 9 -12 15 -3 25 9 11 15 12 25 3 11 -9
12 -15 3 -25z m100 0 c-9 -11 -15 -12 -25 -3 -11 9 -12 15 -3 25 9 11 15 12
25 3 11 -9 12 -15 3 -25z m100 0 c-9 -11 -15 -12 -25 -3 -11 9 -12 15 -3 25 9
11 15 12 25 3 11 -9 12 -15 3 -25z m100 0 c-9 -11 -15 -12 -25 -3 -11 9 -12
15 -3 25 9 11 15 12 25 3 11 -9 12 -15 3 -25z m101 10 c0 -14 -21 -19 -33 -7
-9 9 13 34 24 27 5 -3 9 -12 9 -20z m599 -10 c-9 -11 -15 -12 -25 -3 -11 9
-12 15 -3 25 9 11 15 12 25 3 11 -9 12 -15 3 -25z m100 0 c-9 -11 -15 -12 -25
-3 -11 9 -12 15 -3 25 9 11 15 12 25 3 11 -9 12 -15 3 -25z m100 0 c-9 -11
-15 -12 -25 -3 -11 9 -12 15 -3 25 9 11 15 12 25 3 11 -9 12 -15 3 -25z m100
0 c-9 -11 -15 -12 -25 -3 -11 9 -12 15 -3 25 9 11 15 12 25 3 11 -9 12 -15 3
-25z m100 0 c-9 -11 -15 -12 -25 -3 -11 9 -12 15 -3 25 9 11 15 12 25 3 11 -9
12 -15 3 -25z m100 0 c-9 -11 -15 -12 -25 -3 -11 9 -12 15 -3 25 9 11 15 12
25 3 11 -9 12 -15 3 -25z m201 10 c0 -14 -21 -19 -33 -7 -9 9 13 34 24 27 5
-3 9 -12 9 -20z m99 -10 c-9 -11 -15 -12 -25 -3 -11 9 -12 15 -3 25 9 11 15
12 25 3 11 -9 12 -15 3 -25z m100 0 c-9 -11 -15 -12 -25 -3 -11 9 -12 15 -3
25 9 11 15 12 25 3 11 -9 12 -15 3 -25z m-296 19 c4 -3 2 -12 -4 -20 -9 -10
-15 -10 -25 -2 -8 6 -11 15 -8 20 6 11 28 12 37 2z m-2152 -66 c-5 -5 -17 -7
-26 -3 -14 5 -15 9 -5 21 10 12 16 13 27 4 9 -8 10 -16 4 -22z m98 -3 c-9 -11
-15 -12 -25 -3 -11 9 -12 15 -3 25 9 11 15 12 25 3 11 -9 12 -15 3 -25z m100
0 c-9 -11 -15 -12 -25 -3 -11 9 -12 15 -3 25 9 11 15 12 25 3 11 -9 12 -15 3
-25z m100 0 c-9 -11 -15 -12 -25 -3 -11 9 -12 15 -3 25 9 11 15 12 25 3 11 -9
12 -15 3 -25z m100 0 c-9 -11 -15 -12 -25 -3 -11 9 -12 15 -3 25 9 11 15 12
25 3 11 -9 12 -15 3 -25z m100 0 c-9 -11 -15 -12 -25 -3 -11 9 -12 15 -3 25 9
11 15 12 25 3 11 -9 12 -15 3 -25z m100 0 c-9 -11 -15 -12 -25 -3 -11 9 -12
15 -3 25 9 11 15 12 25 3 11 -9 12 -15 3 -25z m100 0 c-9 -11 -15 -12 -25 -3
-11 9 -12 15 -3 25 9 11 15 12 25 3 11 -9 12 -15 3 -25z m100 0 c-9 -11 -15
-12 -25 -3 -11 9 -12 15 -3 25 9 11 15 12 25 3 11 -9 12 -15 3 -25z m97 1 c-5
-14 -9 -15 -21 -5 -12 10 -13 16 -4 27 15 18 34 1 25 -22z m371 -229 c-277
-276 -282 -280 -298 -271 -7 5 84 103 252 271 200 200 266 261 276 253 10 -9
-44 -68 -230 -253z m329 229 c-5 -14 -9 -15 -21 -5 -12 10 -13 16 -4 27 15 18
34 1 25 -22z m103 -1 c-9 -11 -15 -12 -25 -3 -11 9 -12 15 -3 25 9 11 15 12
25 3 11 -9 12 -15 3 -25z m97 1 c-5 -14 -9 -15 -21 -5 -12 10 -13 16 -4 27 15
18 34 1 25 -22z m103 -1 c-9 -11 -15 -12 -25 -3 -11 9 -12 15 -3 25 9 11 15
12 25 3 11 -9 12 -15 3 -25z m100 0 c-9 -11 -15 -12 -25 -3 -11 9 -12 15 -3
25 9 11 15 12 25 3 11 -9 12 -15 3 -25z m100 0 c-9 -11 -15 -12 -25 -3 -11 9
-12 15 -3 25 9 11 15 12 25 3 11 -9 12 -15 3 -25z m200 0 c-9 -11 -15 -12 -25
-3 -11 9 -12 15 -3 25 9 11 15 12 25 3 11 -9 12 -15 3 -25z m97 1 c-5 -14 -9
-15 -21 -5 -12 10 -13 16 -4 27 15 18 34 1 25 -22z m-196 12 c0 -8 -3 -17 -7
-20 -9 -9 -34 13 -27 24 8 14 34 11 34 -4z m-2146 -58 c-8 -14 -34 -11 -34 4
0 8 3 17 7 20 9 9 34 -13 27 -24z m95 -5 c-9 -11 -15 -12 -25 -3 -11 9 -12 15
-3 25 9 11 15 12 25 3 11 -9 12 -15 3 -25z m100 0 c-9 -11 -15 -12 -25 -3 -11
9 -12 15 -3 25 9 11 15 12 25 3 11 -9 12 -15 3 -25z m100 0 c-9 -11 -15 -12
-25 -3 -11 9 -12 15 -3 25 9 11 15 12 25 3 11 -9 12 -15 3 -25z m100 0 c-9
-11 -15 -12 -25 -3 -11 9 -12 15 -3 25 9 11 15 12 25 3 11 -9 12 -15 3 -25z
m100 0 c-9 -11 -15 -12 -25 -3 -11 9 -12 15 -3 25 9 11 15 12 25 3 11 -9 12
-15 3 -25z m100 0 c-9 -11 -15 -12 -25 -3 -11 9 -12 15 -3 25 9 11 15 12 25 3
11 -9 12 -15 3 -25z m99 -2 c-8 -9 -14 -9 -24 -1 -11 9 -11 15 -3 25 8 10 14
11 24 1 9 -8 10 -16 3 -25z m101 2 c-9 -11 -15 -12 -25 -3 -11 9 -12 15 -3 25
9 11 15 12 25 3 11 -9 12 -15 3 -25z m100 0 c-9 -11 -15 -12 -25 -3 -11 9 -12
15 -3 25 9 11 15 12 25 3 11 -9 12 -15 3 -25z m600 0 c-9 -11 -15 -12 -25 -3
-11 9 -12 15 -3 25 9 11 15 12 25 3 11 -9 12 -15 3 -25z m99 -2 c-8 -9 -14 -9
-24 -1 -11 9 -11 15 -3 25 8 10 14 11 24 1 9 -8 10 -16 3 -25z m101 2 c-9 -11
-15 -12 -25 -3 -11 9 -12 15 -3 25 9 11 15 12 25 3 11 -9 12 -15 3 -25z m200
0 c-9 -11 -15 -12 -25 -3 -11 9 -12 15 -3 25 9 11 15 12 25 3 11 -9 12 -15 3
-25z m100 0 c-9 -11 -15 -12 -25 -3 -11 9 -12 15 -3 25 9 11 15 12 25 3 11 -9
12 -15 3 -25z m100 0 c-9 -11 -15 -12 -25 -3 -11 9 -12 15 -3 25 9 11 15 12
25 3 11 -9 12 -15 3 -25z m200 0 c-9 -11 -15 -12 -25 -3 -11 9 -12 15 -3 25 9
11 15 12 25 3 11 -9 12 -15 3 -25z m100 0 c-9 -11 -15 -12 -25 -3 -11 9 -12
15 -3 25 9 11 15 12 25 3 11 -9 12 -15 3 -25z m-596 19 c4 -3 2 -12 -4 -20 -9
-10 -15 -10 -25 -2 -8 6 -11 15 -8 20 6 11 28 12 37 2z m397 -6 c0 -8 -3 -17
-7 -20 -9 -9 -34 13 -27 24 8 14 34 11 34 -4z m-2251 -63 c-9 -11 -15 -12 -25
-3 -11 9 -12 15 -3 25 9 11 15 12 25 3 11 -9 12 -15 3 -25z m102 3 c-5 -5 -17
-7 -26 -3 -14 5 -15 9 -5 21 10 12 16 13 27 4 9 -8 10 -16 4 -22z m98 -3 c-9
-11 -15 -12 -25 -3 -11 9 -12 15 -3 25 9 11 15 12 25 3 11 -9 12 -15 3 -25z
m100 0 c-9 -11 -15 -12 -25 -3 -11 9 -12 15 -3 25 9 11 15 12 25 3 11 -9 12
-15 3 -25z m100 0 c-9 -11 -15 -12 -25 -3 -11 9 -12 15 -3 25 9 11 15 12 25 3
11 -9 12 -15 3 -25z m100 0 c-9 -11 -15 -12 -25 -3 -11 9 -12 15 -3 25 9 11
15 12 25 3 11 -9 12 -15 3 -25z m100 0 c-9 -11 -15 -12 -25 -3 -11 9 -12 15
-3 25 9 11 15 12 25 3 11 -9 12 -15 3 -25z m100 0 c-9 -11 -15 -12 -25 -3 -11
9 -12 15 -3 25 9 11 15 12 25 3 11 -9 12 -15 3 -25z m97 1 c-5 -14 -9 -15 -21
-5 -12 10 -13 16 -4 27 15 18 34 1 25 -22z m455 -247 c-142 -142 -263 -258
-268 -258 -5 0 -13 3 -17 7 -4 4 111 125 256 270 206 206 265 260 275 251 11
-9 -41 -65 -246 -270z m348 246 c-9 -11 -15 -12 -25 -3 -11 9 -12 15 -3 25 9
11 15 12 25 3 11 -9 12 -15 3 -25z m97 1 c-5 -14 -9 -15 -21 -5 -12 10 -13 16
-4 27 15 18 34 1 25 -22z m103 -1 c-9 -11 -15 -12 -25 -3 -11 9 -12 15 -3 25
9 11 15 12 25 3 11 -9 12 -15 3 -25z m100 0 c-9 -11 -15 -12 -25 -3 -11 9 -12
15 -3 25 9 11 15 12 25 3 11 -9 12 -15 3 -25z m100 0 c-9 -11 -15 -12 -25 -3
-11 9 -12 15 -3 25 9 11 15 12 25 3 11 -9 12 -15 3 -25z m100 0 c-9 -11 -15
-12 -25 -3 -11 9 -12 15 -3 25 9 11 15 12 25 3 11 -9 12 -15 3 -25z m197 1
c-5 -14 -9 -15 -21 -5 -12 10 -13 16 -4 27 15 18 34 1 25 -22z m103 -1 c-9
-11 -15 -12 -25 -3 -11 9 -12 15 -3 25 9 11 15 12 25 3 11 -9 12 -15 3 -25z
m-1496 19 c4 -3 2 -12 -4 -20 -9 -10 -15 -10 -25 -2 -8 6 -11 15 -8 20 6 11
28 12 37 2z m1297 -6 c0 -8 -3 -17 -7 -20 -9 -9 -34 13 -27 24 8 14 34 11 34
-4z m-2151 -63 c-9 -11 -15 -12 -25 -3 -11 9 -12 15 -3 25 9 11 15 12 25 3 11
-9 12 -15 3 -25z m102 3 c-5 -5 -17 -7 -26 -3 -14 5 -15 9 -5 21 10 12 16 13
27 4 9 -8 10 -16 4 -22z m98 -3 c-9 -11 -15 -12 -25 -3 -11 9 -12 15 -3 25 9
11 15 12 25 3 11 -9 12 -15 3 -25z m100 0 c-9 -11 -15 -12 -25 -3 -11 9 -12
15 -3 25 9 11 15 12 25 3 11 -9 12 -15 3 -25z m100 0 c-9 -11 -15 -12 -25 -3
-11 9 -12 15 -3 25 9 11 15 12 25 3 11 -9 12 -15 3 -25z m100 0 c-9 -11 -15
-12 -25 -3 -11 9 -12 15 -3 25 9 11 15 12 25 3 11 -9 12 -15 3 -25z m100 0
c-9 -11 -15 -12 -25 -3 -11 9 -12 15 -3 25 9 11 15 12 25 3 11 -9 12 -15 3
-25z m100 0 c-9 -11 -15 -12 -25 -3 -11 9 -12 15 -3 25 9 11 15 12 25 3 11 -9
12 -15 3 -25z m200 0 c-9 -11 -15 -12 -25 -3 -11 9 -12 15 -3 25 9 11 15 12
25 3 11 -9 12 -15 3 -25z m600 0 c-9 -11 -15 -12 -25 -3 -11 9 -12 15 -3 25 9
11 15 12 25 3 11 -9 12 -15 3 -25z m100 0 c-9 -11 -15 -12 -25 -3 -11 9 -12
15 -3 25 9 11 15 12 25 3 11 -9 12 -15 3 -25z m100 0 c-9 -11 -15 -12 -25 -3
-11 9 -12 15 -3 25 9 11 15 12 25 3 11 -9 12 -15 3 -25z m100 0 c-9 -11 -15
-12 -25 -3 -11 9 -12 15 -3 25 9 11 15 12 25 3 11 -9 12 -15 3 -25z m100 0
c-9 -11 -15 -12 -25 -3 -11 9 -12 15 -3 25 9 11 15 12 25 3 11 -9 12 -15 3
-25z m100 0 c-9 -11 -15 -12 -25 -3 -11 9 -12 15 -3 25 9 11 15 12 25 3 11 -9
12 -15 3 -25z m197 1 c-5 -14 -9 -15 -21 -5 -12 10 -13 16 -4 27 15 18 34 1
25 -22z m100 0 c-5 -14 -9 -15 -21 -5 -12 10 -13 16 -4 27 15 18 34 1 25 -22z
m105 2 c-5 -5 -17 -7 -26 -3 -14 5 -15 9 -5 21 10 12 16 13 27 4 9 -8 10 -16
4 -22z m-1603 6 c-4 -22 -22 -20 -26 1 -2 10 3 16 13 16 10 0 15 -7 13 -17z
m1305 10 c4 -3 2 -12 -4 -20 -9 -10 -15 -10 -25 -2 -8 6 -11 15 -8 20 6 11 28
12 37 2z m-2154 -69 c-9 -11 -15 -12 -25 -3 -11 9 -12 15 -3 25 9 11 15 12 25
3 11 -9 12 -15 3 -25z m100 0 c-9 -11 -15 -12 -25 -3 -11 9 -12 15 -3 25 9 11
15 12 25 3 11 -9 12 -15 3 -25z m103 4 c-5 -5 -16 -6 -26 -2 -13 5 -14 9 -5
20 9 11 15 12 26 3 8 -7 10 -16 5 -21z m97 -4 c-9 -11 -15 -12 -25 -3 -11 9
-12 15 -3 25 9 11 15 12 25 3 11 -9 12 -15 3 -25z m100 0 c-9 -11 -15 -12 -25
-3 -11 9 -12 15 -3 25 9 11 15 12 25 3 11 -9 12 -15 3 -25z m100 0 c-9 -11
-15 -12 -25 -3 -11 9 -12 15 -3 25 9 11 15 12 25 3 11 -9 12 -15 3 -25z m100
0 c-9 -11 -15 -12 -25 -3 -11 9 -12 15 -3 25 9 11 15 12 25 3 11 -9 12 -15 3
-25z m97 1 c-5 -14 -9 -15 -21 -5 -12 10 -13 16 -4 27 15 18 34 1 25 -22z
m103 -1 c-9 -11 -15 -12 -25 -3 -11 9 -12 15 -3 25 9 11 15 12 25 3 11 -9 12
-15 3 -25z m97 1 c-5 -14 -9 -15 -21 -5 -12 10 -13 16 -4 27 15 18 34 1 25
-22z m352 -246 c-184 -183 -265 -258 -276 -254 -12 4 56 78 248 270 199 200
267 262 277 254 9 -8 -50 -73 -249 -270z m351 245 c-9 -11 -15 -12 -25 -3 -11
9 -12 15 -3 25 9 11 15 12 25 3 11 -9 12 -15 3 -25z m100 0 c-9 -11 -15 -12
-25 -3 -11 9 -12 15 -3 25 9 11 15 12 25 3 11 -9 12 -15 3 -25z m97 1 c-5 -14
-9 -15 -21 -5 -12 10 -13 16 -4 27 15 18 34 1 25 -22z m103 -1 c-9 -11 -15
-12 -25 -3 -11 9 -12 15 -3 25 9 11 15 12 25 3 11 -9 12 -15 3 -25z m97 1 c-5
-14 -9 -15 -21 -5 -12 10 -13 16 -4 27 15 18 34 1 25 -22z m200 0 c-5 -14 -9
-15 -21 -5 -12 10 -13 16 -4 27 15 18 34 1 25 -22z m103 -1 c-9 -11 -15 -12
-25 -3 -11 9 -12 15 -3 25 9 11 15 12 25 3 11 -9 12 -15 3 -25z m97 1 c-5 -14
-9 -15 -21 -5 -12 10 -13 16 -4 27 15 18 34 1 25 -22z m-293 18 c4 -3 2 -12
-4 -20 -9 -10 -15 -10 -25 -2 -8 6 -11 15 -8 20 6 11 28 12 37 2z m-2054 -69
c-9 -11 -15 -12 -25 -3 -11 9 -12 15 -3 25 9 11 15 12 25 3 11 -9 12 -15 3
-25z m100 0 c-9 -11 -15 -12 -25 -3 -11 9 -12 15 -3 25 9 11 15 12 25 3 11 -9
12 -15 3 -25z m105 5 c-8 -14 -34 -11 -34 4 0 8 3 17 7 20 9 9 34 -13 27 -24z
m95 -5 c-9 -11 -15 -12 -25 -3 -11 9 -12 15 -3 25 9 11 15 12 25 3 11 -9 12
-15 3 -25z m100 0 c-9 -11 -15 -12 -25 -3 -11 9 -12 15 -3 25 9 11 15 12 25 3
11 -9 12 -15 3 -25z m100 0 c-9 -11 -15 -12 -25 -3 -11 9 -12 15 -3 25 9 11
15 12 25 3 11 -9 12 -15 3 -25z m100 0 c-9 -11 -15 -12 -25 -3 -11 9 -12 15
-3 25 9 11 15 12 25 3 11 -9 12 -15 3 -25z m200 0 c-9 -11 -15 -12 -25 -3 -11
9 -12 15 -3 25 9 11 15 12 25 3 11 -9 12 -15 3 -25z m700 0 c-9 -11 -15 -12
-25 -3 -11 9 -12 15 -3 25 9 11 15 12 25 3 11 -9 12 -15 3 -25z m100 0 c-9
-11 -15 -12 -25 -3 -11 9 -12 15 -3 25 9 11 15 12 25 3 11 -9 12 -15 3 -25z
m100 0 c-9 -11 -15 -12 -25 -3 -11 9 -12 15 -3 25 9 11 15 12 25 3 11 -9 12
-15 3 -25z m97 1 c-5 -14 -9 -15 -21 -5 -12 10 -13 16 -4 27 15 18 34 1 25
-22z m103 -1 c-9 -11 -15 -12 -25 -3 -11 9 -12 15 -3 25 9 11 15 12 25 3 11
-9 12 -15 3 -25z m200 0 c-9 -11 -15 -12 -25 -3 -11 9 -12 15 -3 25 9 11 15
12 25 3 11 -9 12 -15 3 -25z m100 0 c-9 -11 -15 -12 -25 -3 -11 9 -12 15 -3
25 9 11 15 12 25 3 11 -9 12 -15 3 -25z m101 10 c0 -14 -21 -19 -33 -7 -9 9
13 34 24 27 5 -3 9 -12 9 -20z m-1597 9 c4 -3 2 -12 -4 -20 -9 -10 -15 -10
-25 -2 -8 6 -11 15 -8 20 6 11 28 12 37 2z m197 -6 c0 -8 -3 -17 -7 -20 -9 -9
-34 13 -27 24 8 14 34 11 34 -4z m1103 6 c4 -3 2 -12 -4 -20 -9 -10 -15 -10
-25 -2 -8 6 -11 15 -8 20 6 11 28 12 37 2z m397 -6 c0 -8 -3 -17 -7 -20 -9 -9
-34 13 -27 24 8 14 34 11 34 -4z m-2451 -63 c-9 -11 -15 -12 -25 -3 -11 9 -12
15 -3 25 9 11 15 12 25 3 11 -9 12 -15 3 -25z m100 0 c-9 -11 -15 -12 -25 -3
-11 9 -12 15 -3 25 9 11 15 12 25 3 11 -9 12 -15 3 -25z m100 0 c-9 -11 -15
-12 -25 -3 -11 9 -12 15 -3 25 9 11 15 12 25 3 11 -9 12 -15 3 -25z m105 5
c-8 -14 -34 -11 -34 4 0 8 3 17 7 20 9 9 34 -13 27 -24z m95 -5 c-9 -11 -15
-12 -25 -3 -11 9 -12 15 -3 25 9 11 15 12 25 3 11 -9 12 -15 3 -25z m100 0
c-9 -11 -15 -12 -25 -3 -11 9 -12 15 -3 25 9 11 15 12 25 3 11 -9 12 -15 3
-25z m100 0 c-9 -11 -15 -12 -25 -3 -11 9 -12 15 -3 25 9 11 15 12 25 3 11 -9
12 -15 3 -25z m100 0 c-9 -11 -15 -12 -25 -3 -11 9 -12 15 -3 25 9 11 15 12
25 3 11 -9 12 -15 3 -25z m100 0 c-9 -11 -15 -12 -25 -3 -11 9 -12 15 -3 25 9
11 15 12 25 3 11 -9 12 -15 3 -25z m100 0 c-9 -11 -15 -12 -25 -3 -11 9 -12
15 -3 25 9 11 15 12 25 3 11 -9 12 -15 3 -25z m349 -245 c-189 -190 -264 -259
-276 -254 -12 4 50 72 248 270 193 193 267 261 276 254 9 -7 -57 -79 -248
-270z m351 245 c-9 -11 -15 -12 -25 -3 -11 9 -12 15 -3 25 9 11 15 12 25 3 11
-9 12 -15 3 -25z m100 0 c-9 -11 -15 -12 -25 -3 -11 9 -12 15 -3 25 9 11 15
12 25 3 11 -9 12 -15 3 -25z m100 0 c-9 -11 -15 -12 -25 -3 -11 9 -12 15 -3
25 9 11 15 12 25 3 11 -9 12 -15 3 -25z m300 0 c-9 -11 -15 -12 -25 -3 -11 9
-12 15 -3 25 9 11 15 12 25 3 11 -9 12 -15 3 -25z m100 0 c-9 -11 -15 -12 -25
-3 -11 9 -12 15 -3 25 9 11 15 12 25 3 11 -9 12 -15 3 -25z m97 1 c-5 -14 -9
-15 -21 -5 -12 10 -13 16 -4 27 15 18 34 1 25 -22z m100 0 c-5 -14 -9 -15 -21
-5 -12 10 -13 16 -4 27 15 18 34 1 25 -22z m-493 18 c4 -3 2 -12 -4 -20 -9
-10 -15 -10 -25 -2 -8 6 -11 15 -8 20 6 11 28 12 37 2z m100 0 c4 -3 2 -12 -4
-20 -9 -10 -15 -10 -25 -2 -8 6 -11 15 -8 20 6 11 28 12 37 2z m-1954 -69 c-9
-11 -15 -12 -25 -3 -11 9 -12 15 -3 25 9 11 15 12 25 3 11 -9 12 -15 3 -25z
m100 0 c-9 -11 -15 -12 -25 -3 -11 9 -12 15 -3 25 9 11 15 12 25 3 11 -9 12
-15 3 -25z m100 0 c-9 -11 -15 -12 -25 -3 -11 9 -12 15 -3 25 9 11 15 12 25 3
11 -9 12 -15 3 -25z m100 -1 c-15 -18 -34 -1 -25 22 5 14 9 15 21 5 12 -10 13
-16 4 -27z m100 1 c-9 -11 -15 -12 -25 -3 -11 9 -12 15 -3 25 9 11 15 12 25 3
11 -9 12 -15 3 -25z m100 0 c-9 -11 -15 -12 -25 -3 -11 9 -12 15 -3 25 9 11
15 12 25 3 11 -9 12 -15 3 -25z m100 0 c-9 -11 -15 -12 -25 -3 -11 9 -12 15
-3 25 9 11 15 12 25 3 11 -9 12 -15 3 -25z m100 0 c-9 -11 -15 -12 -25 -3 -11
9 -12 15 -3 25 9 11 15 12 25 3 11 -9 12 -15 3 -25z m100 0 c-9 -11 -15 -12
-25 -3 -11 9 -12 15 -3 25 9 11 15 12 25 3 11 -9 12 -15 3 -25z m100 0 c-9
-11 -15 -12 -25 -3 -11 9 -12 15 -3 25 9 11 15 12 25 3 11 -9 12 -15 3 -25z
m600 0 c-9 -11 -15 -12 -25 -3 -11 9 -12 15 -3 25 9 11 15 12 25 3 11 -9 12
-15 3 -25z m100 0 c-9 -11 -15 -12 -25 -3 -11 9 -12 15 -3 25 9 11 15 12 25 3
11 -9 12 -15 3 -25z m100 0 c-9 -11 -15 -12 -25 -3 -11 9 -12 15 -3 25 9 11
15 12 25 3 11 -9 12 -15 3 -25z m100 0 c-9 -11 -15 -12 -25 -3 -11 9 -12 15
-3 25 9 11 15 12 25 3 11 -9 12 -15 3 -25z m200 0 c-9 -11 -15 -12 -25 -3 -11
9 -12 15 -3 25 9 11 15 12 25 3 11 -9 12 -15 3 -25z m100 0 c-9 -11 -15 -12
-25 -3 -11 9 -12 15 -3 25 9 11 15 12 25 3 11 -9 12 -15 3 -25z m98 1 c-17
-19 -42 2 -26 21 9 11 15 11 25 3 10 -8 11 -14 1 -24z m102 -1 c-9 -11 -15
-12 -25 -3 -11 9 -12 15 -3 25 9 11 15 12 25 3 11 -9 12 -15 3 -25z m97 1 c-5
-14 -9 -15 -21 -5 -12 10 -13 16 -4 27 15 18 34 1 25 -22z m-493 18 c4 -3 2
-12 -4 -20 -9 -10 -15 -10 -25 -2 -8 6 -11 15 -8 20 6 11 28 12 37 2z m-1951
-65 c-5 -5 -16 -6 -26 -2 -13 5 -14 9 -5 20 9 11 15 12 26 3 8 -7 10 -16 5
-21z m97 -4 c-9 -11 -15 -12 -25 -3 -11 9 -12 15 -3 25 9 11 15 12 25 3 11 -9
12 -15 3 -25z m100 0 c-9 -11 -15 -12 -25 -3 -11 9 -12 15 -3 25 9 11 15 12
25 3 11 -9 12 -15 3 -25z m100 0 c-9 -11 -15 -12 -25 -3 -11 9 -12 15 -3 25 9
11 15 12 25 3 11 -9 12 -15 3 -25z m105 5 c-8 -14 -34 -11 -34 4 0 8 3 17 7
20 9 9 34 -13 27 -24z m95 -5 c-9 -11 -15 -12 -25 -3 -11 9 -12 15 -3 25 9 11
15 12 25 3 11 -9 12 -15 3 -25z m100 0 c-9 -11 -15 -12 -25 -3 -11 9 -12 15
-3 25 9 11 15 12 25 3 11 -9 12 -15 3 -25z m100 0 c-9 -11 -15 -12 -25 -3 -11
9 -12 15 -3 25 9 11 15 12 25 3 11 -9 12 -15 3 -25z m100 0 c-9 -11 -15 -12
-25 -3 -11 9 -12 15 -3 25 9 11 15 12 25 3 11 -9 12 -15 3 -25z m97 1 c-5 -14
-9 -15 -21 -5 -12 10 -13 16 -4 27 15 18 34 1 25 -22z m703 -1 c-9 -11 -15
-12 -25 -3 -11 9 -12 15 -3 25 9 11 15 12 25 3 11 -9 12 -15 3 -25z m100 0
c-9 -11 -15 -12 -25 -3 -11 9 -12 15 -3 25 9 11 15 12 25 3 11 -9 12 -15 3
-25z m97 1 c-5 -14 -9 -15 -21 -5 -12 10 -13 16 -4 27 15 18 34 1 25 -22z
m103 -1 c-9 -11 -15 -12 -25 -3 -11 9 -12 15 -3 25 9 11 15 12 25 3 11 -9 12
-15 3 -25z m97 1 c-5 -14 -9 -15 -21 -5 -12 10 -13 16 -4 27 15 18 34 1 25
-22z m103 -1 c-9 -11 -15 -12 -25 -3 -11 9 -12 15 -3 25 9 11 15 12 25 3 11
-9 12 -15 3 -25z m98 1 c-17 -19 -42 2 -26 21 9 11 15 11 25 3 10 -8 11 -14 1
-24z m102 -1 c-9 -11 -15 -12 -25 -3 -11 9 -12 15 -3 25 9 11 15 12 25 3 11
-9 12 -15 3 -25z m100 0 c-9 -11 -15 -12 -25 -3 -11 9 -12 15 -3 25 9 11 15
12 25 3 11 -9 12 -15 3 -25z m-2348 -47 c-5 -5 -17 -7 -26 -3 -14 5 -15 9 -5
21 10 12 16 13 27 4 9 -8 10 -16 4 -22z m98 -3 c-9 -11 -15 -12 -25 -3 -11 9
-12 15 -3 25 9 11 15 12 25 3 11 -9 12 -15 3 -25z m100 0 c-9 -11 -15 -12 -25
-3 -11 9 -12 15 -3 25 9 11 15 12 25 3 11 -9 12 -15 3 -25z m100 0 c-9 -11
-15 -12 -25 -3 -11 9 -12 15 -3 25 9 11 15 12 25 3 11 -9 12 -15 3 -25z m100
0 c-9 -11 -15 -12 -25 -3 -11 9 -12 15 -3 25 9 11 15 12 25 3 11 -9 12 -15 3
-25z m100 0 c-9 -11 -15 -12 -25 -3 -11 9 -12 15 -3 25 9 11 15 12 25 3 11 -9
12 -15 3 -25z m100 0 c-9 -11 -15 -12 -25 -3 -11 9 -12 15 -3 25 9 11 15 12
25 3 11 -9 12 -15 3 -25z m197 1 c-5 -14 -9 -15 -21 -5 -12 10 -13 16 -4 27
15 18 34 1 25 -22z m103 -1 c-9 -11 -15 -12 -25 -3 -11 9 -12 15 -3 25 9 11
15 12 25 3 11 -9 12 -15 3 -25z m600 0 c-9 -11 -15 -12 -25 -3 -11 9 -12 15
-3 25 9 11 15 12 25 3 11 -9 12 -15 3 -25z m100 0 c-9 -11 -15 -12 -25 -3 -11
9 -12 15 -3 25 9 11 15 12 25 3 11 -9 12 -15 3 -25z m100 0 c-9 -11 -15 -12
-25 -3 -11 9 -12 15 -3 25 9 11 15 12 25 3 11 -9 12 -15 3 -25z m100 0 c-9
-11 -15 -12 -25 -3 -11 9 -12 15 -3 25 9 11 15 12 25 3 11 -9 12 -15 3 -25z
m100 0 c-9 -11 -15 -12 -25 -3 -11 9 -12 15 -3 25 9 11 15 12 25 3 11 -9 12
-15 3 -25z m200 0 c-9 -11 -15 -12 -25 -3 -11 9 -12 15 -3 25 9 11 15 12 25 3
11 -9 12 -15 3 -25z m100 0 c-9 -11 -15 -12 -25 -3 -11 9 -12 15 -3 25 9 11
15 12 25 3 11 -9 12 -15 3 -25z m100 0 c-9 -11 -15 -12 -25 -3 -11 9 -12 15
-3 25 9 11 15 12 25 3 11 -9 12 -15 3 -25z m100 0 c-9 -11 -15 -12 -25 -3 -11
9 -12 15 -3 25 9 11 15 12 25 3 11 -9 12 -15 3 -25z m-1696 19 c4 -3 2 -12 -4
-20 -9 -10 -15 -10 -25 -2 -8 6 -11 15 -8 20 6 11 28 12 37 2z m1300 0 c4 -3
2 -12 -4 -20 -9 -10 -15 -10 -25 -2 -8 6 -11 15 -8 20 6 11 28 12 37 2z
m-2054 -69 c-9 -11 -15 -12 -25 -3 -11 9 -12 15 -3 25 9 11 15 12 25 3 11 -9
12 -15 3 -25z m102 3 c-5 -5 -17 -7 -26 -3 -14 5 -15 9 -5 21 10 12 16 13 27
4 9 -8 10 -16 4 -22z m98 -3 c-9 -11 -15 -12 -25 -3 -11 9 -12 15 -3 25 9 11
15 12 25 3 11 -9 12 -15 3 -25z m100 0 c-9 -11 -15 -12 -25 -3 -11 9 -12 15
-3 25 9 11 15 12 25 3 11 -9 12 -15 3 -25z m102 3 c-5 -5 -17 -7 -26 -3 -14 5
-15 9 -5 21 10 12 16 13 27 4 9 -8 10 -16 4 -22z m103 2 c-8 -14 -34 -11 -34
4 0 8 3 17 7 20 9 9 34 -13 27 -24z m95 -5 c-9 -11 -15 -12 -25 -3 -11 9 -12
15 -3 25 9 11 15 12 25 3 11 -9 12 -15 3 -25z m100 0 c-9 -11 -15 -12 -25 -3
-11 9 -12 15 -3 25 9 11 15 12 25 3 11 -9 12 -15 3 -25z m97 1 c-5 -14 -9 -15
-21 -5 -12 10 -13 16 -4 27 15 18 34 1 25 -22z m803 -1 c-9 -11 -15 -12 -25
-3 -11 9 -12 15 -3 25 9 11 15 12 25 3 11 -9 12 -15 3 -25z m100 0 c-9 -11
-15 -12 -25 -3 -11 9 -12 15 -3 25 9 11 15 12 25 3 11 -9 12 -15 3 -25z m100
0 c-9 -11 -15 -12 -25 -3 -11 9 -12 15 -3 25 9 11 15 12 25 3 11 -9 12 -15 3
-25z m100 0 c-9 -11 -15 -12 -25 -3 -11 9 -12 15 -3 25 9 11 15 12 25 3 11 -9
12 -15 3 -25z m100 0 c-9 -11 -15 -12 -25 -3 -11 9 -12 15 -3 25 9 11 15 12
25 3 11 -9 12 -15 3 -25z m100 0 c-9 -11 -15 -12 -25 -3 -11 9 -12 15 -3 25 9
11 15 12 25 3 11 -9 12 -15 3 -25z m100 0 c-9 -11 -15 -12 -25 -3 -11 9 -12
15 -3 25 9 11 15 12 25 3 11 -9 12 -15 3 -25z m97 1 c-5 -14 -9 -15 -21 -5
-12 10 -13 16 -4 27 15 18 34 1 25 -22z m103 -1 c-9 -11 -15 -12 -25 -3 -11 9
-12 15 -3 25 9 11 15 12 25 3 11 -9 12 -15 3 -25z m-1496 19 c4 -3 2 -12 -4
-20 -9 -10 -15 -10 -25 -2 -8 6 -11 15 -8 20 6 11 28 12 37 2z m-854 -69 c-9
-11 -15 -12 -25 -3 -11 9 -12 15 -3 25 9 11 15 12 25 3 11 -9 12 -15 3 -25z
m100 0 c-9 -11 -15 -12 -25 -3 -11 9 -12 15 -3 25 9 11 15 12 25 3 11 -9 12
-15 3 -25z m100 0 c-9 -11 -15 -12 -25 -3 -11 9 -12 15 -3 25 9 11 15 12 25 3
11 -9 12 -15 3 -25z m100 0 c-9 -11 -15 -12 -25 -3 -11 9 -12 15 -3 25 9 11
15 12 25 3 11 -9 12 -15 3 -25z m100 -1 c-15 -18 -34 -1 -25 22 5 14 9 15 21
5 12 -10 13 -16 4 -27z m100 1 c-9 -11 -15 -12 -25 -3 -11 9 -12 15 -3 25 9
11 15 12 25 3 11 -9 12 -15 3 -25z m100 0 c-9 -11 -15 -12 -25 -3 -11 9 -12
15 -3 25 9 11 15 12 25 3 11 -9 12 -15 3 -25z m100 0 c-9 -11 -15 -12 -25 -3
-11 9 -12 15 -3 25 9 11 15 12 25 3 11 -9 12 -15 3 -25z m200 0 c-9 -11 -15
-12 -25 -3 -11 9 -12 15 -3 25 9 11 15 12 25 3 11 -9 12 -15 3 -25z m600 0
c-9 -11 -15 -12 -25 -3 -11 9 -12 15 -3 25 9 11 15 12 25 3 11 -9 12 -15 3
-25z m100 0 c-9 -11 -15 -12 -25 -3 -11 9 -12 15 -3 25 9 11 15 12 25 3 11 -9
12 -15 3 -25z m100 0 c-9 -11 -15 -12 -25 -3 -11 9 -12 15 -3 25 9 11 15 12
25 3 11 -9 12 -15 3 -25z m100 0 c-9 -11 -15 -12 -25 -3 -11 9 -12 15 -3 25 9
11 15 12 25 3 11 -9 12 -15 3 -25z m100 0 c-9 -11 -15 -12 -25 -3 -11 9 -12
15 -3 25 9 11 15 12 25 3 11 -9 12 -15 3 -25z m100 0 c-9 -11 -15 -12 -25 -3
-11 9 -12 15 -3 25 9 11 15 12 25 3 11 -9 12 -15 3 -25z m200 0 c-9 -11 -15
-12 -25 -3 -11 9 -12 15 -3 25 9 11 15 12 25 3 11 -9 12 -15 3 -25z m100 0
c-9 -11 -15 -12 -25 -3 -11 9 -12 15 -3 25 9 11 15 12 25 3 11 -9 12 -15 3
-25z m97 1 c-5 -14 -9 -15 -21 -5 -12 10 -13 16 -4 27 15 18 34 1 25 -22z
m-1602 19 c13 -5 14 -9 5 -20 -9 -11 -15 -11 -25 -3 -8 6 -11 15 -8 20 6 11 8
11 28 3z m1300 0 c13 -5 14 -9 5 -20 -9 -11 -15 -11 -25 -3 -8 6 -11 15 -8 20
6 11 8 11 28 3z m-2145 -70 c-9 -11 -15 -12 -25 -3 -11 9 -12 15 -3 25 9 11
15 12 25 3 11 -9 12 -15 3 -25z m100 0 c-9 -11 -15 -12 -25 -3 -11 9 -12 15
-3 25 9 11 15 12 25 3 11 -9 12 -15 3 -25z m100 0 c-9 -11 -15 -12 -25 -3 -11
9 -12 15 -3 25 9 11 15 12 25 3 11 -9 12 -15 3 -25z m100 0 c-9 -11 -15 -12
-25 -3 -11 9 -12 15 -3 25 9 11 15 12 25 3 11 -9 12 -15 3 -25z m100 0 c-9
-11 -15 -12 -25 -3 -11 9 -12 15 -3 25 9 11 15 12 25 3 11 -9 12 -15 3 -25z
m100 0 c-9 -11 -15 -12 -25 -3 -11 9 -12 15 -3 25 9 11 15 12 25 3 11 -9 12
-15 3 -25z m100 -1 c-15 -18 -34 -1 -25 22 5 14 9 15 21 5 12 -10 13 -16 4
-27z m100 1 c-9 -11 -15 -12 -25 -3 -11 9 -12 15 -3 25 9 11 15 12 25 3 11 -9
12 -15 3 -25z m100 0 c-9 -11 -15 -12 -25 -3 -11 9 -12 15 -3 25 9 11 15 12
25 3 11 -9 12 -15 3 -25z m97 1 c-5 -14 -9 -15 -21 -5 -12 10 -13 16 -4 27 15
18 34 1 25 -22z m703 -1 c-9 -11 -15 -12 -25 -3 -11 9 -12 15 -3 25 9 11 15
12 25 3 11 -9 12 -15 3 -25z m100 0 c-9 -11 -15 -12 -25 -3 -11 9 -12 15 -3
25 9 11 15 12 25 3 11 -9 12 -15 3 -25z m100 0 c-9 -11 -15 -12 -25 -3 -11 9
-12 15 -3 25 9 11 15 12 25 3 11 -9 12 -15 3 -25z m100 0 c-9 -11 -15 -12 -25
-3 -11 9 -12 15 -3 25 9 11 15 12 25 3 11 -9 12 -15 3 -25z m97 1 c-5 -14 -9
-15 -21 -5 -12 10 -13 16 -4 27 15 18 34 1 25 -22z m103 -1 c-9 -11 -15 -12
-25 -3 -11 9 -12 15 -3 25 9 11 15 12 25 3 11 -9 12 -15 3 -25z m97 1 c-5 -14
-9 -15 -21 -5 -12 10 -13 16 -4 27 15 18 34 1 25 -22z m103 -1 c-9 -11 -15
-12 -25 -3 -11 9 -12 15 -3 25 9 11 15 12 25 3 11 -9 12 -15 3 -25z m97 1 c-5
-14 -9 -15 -21 -5 -12 10 -13 16 -4 27 15 18 34 1 25 -22z m-2347 -51 c-9 -11
-15 -12 -25 -3 -11 9 -12 15 -3 25 9 11 15 12 25 3 11 -9 12 -15 3 -25z m100
0 c-9 -11 -15 -12 -25 -3 -11 9 -12 15 -3 25 9 11 15 12 25 3 11 -9 12 -15 3
-25z m100 0 c-9 -11 -15 -12 -25 -3 -11 9 -12 15 -3 25 9 11 15 12 25 3 11 -9
12 -15 3 -25z m100 0 c-9 -11 -15 -12 -25 -3 -11 9 -12 15 -3 25 9 11 15 12
25 3 11 -9 12 -15 3 -25z m111 16 c0 -4 -6 -13 -14 -19 -18 -15 -41 10 -25 26
12 12 39 7 39 -7z m89 -16 c-9 -11 -15 -12 -25 -3 -11 9 -12 15 -3 25 9 11 15
12 25 3 11 -9 12 -15 3 -25z m105 5 c-8 -14 -34 -11 -34 4 0 8 3 17 7 20 9 9
34 -13 27 -24z m95 -5 c-9 -11 -15 -12 -25 -3 -11 9 -12 15 -3 25 9 11 15 12
25 3 11 -9 12 -15 3 -25z m100 0 c-9 -11 -15 -12 -25 -3 -11 9 -12 15 -3 25 9
11 15 12 25 3 11 -9 12 -15 3 -25z m700 0 c-9 -11 -15 -12 -25 -3 -11 9 -12
15 -3 25 9 11 15 12 25 3 11 -9 12 -15 3 -25z m100 0 c-9 -11 -15 -12 -25 -3
-11 9 -12 15 -3 25 9 11 15 12 25 3 11 -9 12 -15 3 -25z m100 0 c-9 -11 -15
-12 -25 -3 -11 9 -12 15 -3 25 9 11 15 12 25 3 11 -9 12 -15 3 -25z m100 0
c-9 -11 -15 -12 -25 -3 -11 9 -12 15 -3 25 9 11 15 12 25 3 11 -9 12 -15 3
-25z m100 0 c-9 -11 -15 -12 -25 -3 -11 9 -12 15 -3 25 9 11 15 12 25 3 11 -9
12 -15 3 -25z m200 0 c-9 -11 -15 -12 -25 -3 -11 9 -12 15 -3 25 9 11 15 12
25 3 11 -9 12 -15 3 -25z m100 0 c-9 -11 -15 -12 -25 -3 -11 9 -12 15 -3 25 9
11 15 12 25 3 11 -9 12 -15 3 -25z m102 3 c-5 -5 -17 -7 -26 -3 -14 5 -15 9
-5 21 10 12 16 13 27 4 9 -8 10 -16 4 -22z m98 -3 c-9 -11 -15 -12 -25 -3 -11
9 -12 15 -3 25 9 11 15 12 25 3 11 -9 12 -15 3 -25z m-1499 13 c0 -8 -3 -17
-7 -20 -9 -9 -34 13 -27 24 8 14 34 11 34 -4z m1103 6 c4 -3 2 -12 -4 -20 -9
-10 -15 -10 -25 -2 -8 6 -11 15 -8 20 6 11 28 12 37 2z m-2054 -69 c-9 -11
-15 -12 -25 -3 -11 9 -12 15 -3 25 9 11 15 12 25 3 11 -9 12 -15 3 -25z m100
0 c-9 -11 -15 -12 -25 -3 -11 9 -12 15 -3 25 9 11 15 12 25 3 11 -9 12 -15 3
-25z m100 0 c-9 -11 -15 -12 -25 -3 -11 9 -12 15 -3 25 9 11 15 12 25 3 11 -9
12 -15 3 -25z m100 0 c-9 -11 -15 -12 -25 -3 -11 9 -12 15 -3 25 9 11 15 12
25 3 11 -9 12 -15 3 -25z m100 0 c-9 -11 -15 -12 -25 -3 -11 9 -12 15 -3 25 9
11 15 12 25 3 11 -9 12 -15 3 -25z m104 22 c8 -21 -17 -40 -31 -23 -9 10 -8
17 0 25 16 16 25 15 31 -2z m101 -17 c-8 -14 -34 -11 -34 4 0 8 3 17 7 20 9 9
34 -13 27 -24z m95 -6 c-15 -18 -34 -1 -25 22 5 14 9 15 21 5 12 -10 13 -16 4
-27z m100 1 c-9 -11 -15 -12 -25 -3 -11 9 -12 15 -3 25 9 11 15 12 25 3 11 -9
12 -15 3 -25z m100 0 c-9 -11 -15 -12 -25 -3 -11 9 -12 15 -3 25 9 11 15 12
25 3 11 -9 12 -15 3 -25z m700 0 c-9 -11 -15 -12 -25 -3 -11 9 -12 15 -3 25 9
11 15 12 25 3 11 -9 12 -15 3 -25z m100 0 c-9 -11 -15 -12 -25 -3 -11 9 -12
15 -3 25 9 11 15 12 25 3 11 -9 12 -15 3 -25z m100 0 c-9 -11 -15 -12 -25 -3
-11 9 -12 15 -3 25 9 11 15 12 25 3 11 -9 12 -15 3 -25z m100 0 c-9 -11 -15
-12 -25 -3 -11 9 -12 15 -3 25 9 11 15 12 25 3 11 -9 12 -15 3 -25z m100 0
c-9 -11 -15 -12 -25 -3 -11 9 -12 15 -3 25 9 11 15 12 25 3 11 -9 12 -15 3
-25z m100 0 c-9 -11 -15 -12 -25 -3 -11 9 -12 15 -3 25 9 11 15 12 25 3 11 -9
12 -15 3 -25z m100 0 c-9 -11 -15 -12 -25 -3 -11 9 -12 15 -3 25 9 11 15 12
25 3 11 -9 12 -15 3 -25z m97 1 c-5 -14 -9 -15 -21 -5 -12 10 -13 16 -4 27 15
18 34 1 25 -22z m103 -1 c-9 -11 -15 -12 -25 -3 -11 9 -12 15 -3 25 9 11 15
12 25 3 11 -9 12 -15 3 -25z m-2450 -50 c-9 -11 -15 -12 -25 -3 -11 9 -12 15
-3 25 9 11 15 12 25 3 11 -9 12 -15 3 -25z m100 0 c-9 -11 -15 -12 -25 -3 -11
9 -12 15 -3 25 9 11 15 12 25 3 11 -9 12 -15 3 -25z m100 0 c-9 -11 -15 -12
-25 -3 -11 9 -12 15 -3 25 9 11 15 12 25 3 11 -9 12 -15 3 -25z m100 0 c-9
-11 -15 -12 -25 -3 -11 9 -12 15 -3 25 9 11 15 12 25 3 11 -9 12 -15 3 -25z
m100 0 c-9 -11 -15 -12 -25 -3 -11 9 -12 15 -3 25 9 11 15 12 25 3 11 -9 12
-15 3 -25z m100 0 c-9 -11 -15 -12 -25 -3 -11 9 -12 15 -3 25 9 11 15 12 25 3
11 -9 12 -15 3 -25z m107 25 c9 -16 -12 -33 -31 -25 -14 5 -15 9 -5 21 15 18
26 19 36 4z m93 -26 c-15 -18 -34 -1 -25 22 5 14 9 15 21 5 12 -10 13 -16 4
-27z m100 0 c-15 -18 -34 -1 -25 22 5 14 9 15 21 5 12 -10 13 -16 4 -27z m100
1 c-9 -11 -15 -12 -25 -3 -11 9 -12 15 -3 25 9 11 15 12 25 3 11 -9 12 -15 3
-25z m101 10 c0 -14 -21 -19 -33 -7 -9 9 13 34 24 27 5 -3 9 -12 9 -20z m599
-10 c-9 -11 -15 -12 -25 -3 -11 9 -12 15 -3 25 9 11 15 12 25 3 11 -9 12 -15
3 -25z m100 0 c-9 -11 -15 -12 -25 -3 -11 9 -12 15 -3 25 9 11 15 12 25 3 11
-9 12 -15 3 -25z m100 0 c-9 -11 -15 -12 -25 -3 -11 9 -12 15 -3 25 9 11 15
12 25 3 11 -9 12 -15 3 -25z m97 1 c-5 -14 -9 -15 -21 -5 -12 10 -13 16 -4 27
15 18 34 1 25 -22z m103 -1 c-9 -11 -15 -12 -25 -3 -11 9 -12 15 -3 25 9 11
15 12 25 3 11 -9 12 -15 3 -25z m100 0 c-9 -11 -15 -12 -25 -3 -11 9 -12 15
-3 25 9 11 15 12 25 3 11 -9 12 -15 3 -25z m201 10 c0 -14 -21 -19 -33 -7 -9
9 13 34 24 27 5 -3 9 -12 9 -20z m96 -9 c-5 -14 -9 -15 -21 -5 -12 10 -13 16
-4 27 15 18 34 1 25 -22z m103 -1 c-9 -11 -15 -12 -25 -3 -11 9 -12 15 -3 25
9 11 15 12 25 3 11 -9 12 -15 3 -25z m-296 19 c4 -3 2 -12 -4 -20 -9 -10 -15
-10 -25 -2 -8 6 -11 15 -8 20 6 11 28 12 37 2z m-2254 -70 c-15 -18 -34 -1
-25 22 5 14 9 15 21 5 12 -10 13 -16 4 -27z m100 1 c-9 -11 -15 -12 -25 -3
-11 9 -12 15 -3 25 9 11 15 12 25 3 11 -9 12 -15 3 -25z m100 0 c-9 -11 -15
-12 -25 -3 -11 9 -12 15 -3 25 9 11 15 12 25 3 11 -9 12 -15 3 -25z m100 0
c-9 -11 -15 -12 -25 -3 -11 9 -12 15 -3 25 9 11 15 12 25 3 11 -9 12 -15 3
-25z m100 0 c-9 -11 -15 -12 -25 -3 -11 9 -12 15 -3 25 9 11 15 12 25 3 11 -9
12 -15 3 -25z m100 0 c-9 -11 -15 -12 -25 -3 -11 9 -12 15 -3 25 9 11 15 12
25 3 11 -9 12 -15 3 -25z m100 0 c-9 -11 -15 -12 -25 -3 -11 9 -12 15 -3 25 9
11 15 12 25 3 11 -9 12 -15 3 -25z m111 16 c0 -4 -6 -13 -14 -19 -18 -15 -41
10 -25 26 12 12 39 7 39 -7z m89 -16 c-9 -11 -15 -12 -25 -3 -11 9 -12 15 -3
25 9 11 15 12 25 3 11 -9 12 -15 3 -25z m100 -1 c-15 -18 -34 -1 -25 22 5 14
9 15 21 5 12 -10 13 -16 4 -27z m97 2 c-5 -14 -9 -15 -21 -5 -12 10 -13 16 -4
27 15 18 34 1 25 -22z m703 -1 c-9 -11 -15 -12 -25 -3 -11 9 -12 15 -3 25 9
11 15 12 25 3 11 -9 12 -15 3 -25z m100 0 c-9 -11 -15 -12 -25 -3 -11 9 -12
15 -3 25 9 11 15 12 25 3 11 -9 12 -15 3 -25z m97 1 c-5 -14 -9 -15 -21 -5
-12 10 -13 16 -4 27 15 18 34 1 25 -22z m203 -1 c-9 -11 -15 -12 -25 -3 -11 9
-12 15 -3 25 9 11 15 12 25 3 11 -9 12 -15 3 -25z m100 0 c-9 -11 -15 -12 -25
-3 -11 9 -12 15 -3 25 9 11 15 12 25 3 11 -9 12 -15 3 -25z m95 2 c-5 -13 -9
-14 -20 -5 -11 9 -12 15 -3 26 15 17 32 2 23 -21z m105 -2 c-9 -11 -15 -12
-25 -3 -11 9 -12 15 -3 25 9 11 15 12 25 3 11 -9 12 -15 3 -25z m97 1 c-5 -14
-9 -15 -21 -5 -12 10 -13 16 -4 27 15 18 34 1 25 -22z m-493 18 c4 -3 2 -12
-4 -20 -9 -10 -15 -10 -25 -2 -8 6 -11 15 -8 20 6 11 28 12 37 2z m-2054 -69
c-9 -11 -15 -12 -25 -3 -11 9 -12 15 -3 25 9 11 15 12 25 3 11 -9 12 -15 3
-25z m102 3 c-5 -5 -17 -7 -26 -3 -14 5 -15 9 -5 21 10 12 16 13 27 4 9 -8 10
-16 4 -22z m98 -3 c-9 -11 -15 -12 -25 -3 -11 9 -12 15 -3 25 9 11 15 12 25 3
11 -9 12 -15 3 -25z m100 0 c-9 -11 -15 -12 -25 -3 -11 9 -12 15 -3 25 9 11
15 12 25 3 11 -9 12 -15 3 -25z m100 0 c-9 -11 -15 -12 -25 -3 -11 9 -12 15
-3 25 9 11 15 12 25 3 11 -9 12 -15 3 -25z m100 0 c-9 -11 -15 -12 -25 -3 -11
9 -12 15 -3 25 9 11 15 12 25 3 11 -9 12 -15 3 -25z m100 0 c-9 -11 -15 -12
-25 -3 -11 9 -12 15 -3 25 9 11 15 12 25 3 11 -9 12 -15 3 -25z m100 0 c-9
-11 -15 -12 -25 -3 -11 9 -12 15 -3 25 9 11 15 12 25 3 11 -9 12 -15 3 -25z
m104 22 c8 -21 -17 -40 -31 -23 -9 10 -8 17 0 25 16 16 25 15 31 -2z m96 -23
c-15 -18 -34 -1 -25 22 5 14 9 15 21 5 12 -10 13 -16 4 -27z m105 6 c-8 -14
-34 -11 -34 4 0 8 3 17 7 20 9 9 34 -13 27 -24z m95 -5 c-9 -11 -15 -12 -25
-3 -11 9 -12 15 -3 25 9 11 15 12 25 3 11 -9 12 -15 3 -25z m600 0 c-9 -11
-15 -12 -25 -3 -11 9 -12 15 -3 25 9 11 15 12 25 3 11 -9 12 -15 3 -25z m100
0 c-9 -11 -15 -12 -25 -3 -11 9 -12 15 -3 25 9 11 15 12 25 3 11 -9 12 -15 3
-25z m100 0 c-9 -11 -15 -12 -25 -3 -11 9 -12 15 -3 25 9 11 15 12 25 3 11 -9
12 -15 3 -25z m100 0 c-9 -11 -15 -12 -25 -3 -11 9 -12 15 -3 25 9 11 15 12
25 3 11 -9 12 -15 3 -25z m96 -5 c-5 -7 -11 -6 -21 2 -11 9 -12 15 -2 26 10
12 13 12 20 -1 5 -9 6 -21 3 -27z m104 5 c-9 -11 -15 -12 -25 -3 -11 9 -12 15
-3 25 9 11 15 12 25 3 11 -9 12 -15 3 -25z m100 0 c-9 -11 -15 -12 -25 -3 -11
9 -12 15 -3 25 9 11 15 12 25 3 11 -9 12 -15 3 -25z m200 0 c-9 -11 -15 -12
-25 -3 -11 9 -12 15 -3 25 9 11 15 12 25 3 11 -9 12 -15 3 -25z m-99 13 c0 -8
-3 -17 -7 -20 -9 -9 -34 13 -27 24 8 14 34 11 34 -4z m203 6 c4 -3 2 -12 -4
-20 -9 -10 -15 -10 -25 -2 -8 6 -11 15 -8 20 6 11 28 12 37 2z m-2654 -69 c-9
-11 -15 -12 -25 -3 -11 9 -12 15 -3 25 9 11 15 12 25 3 11 -9 12 -15 3 -25z
m102 3 c-5 -5 -17 -7 -26 -3 -14 5 -15 9 -5 21 10 12 16 13 27 4 9 -8 10 -16
4 -22z m100 0 c-5 -5 -17 -7 -26 -3 -14 5 -15 9 -5 21 10 12 16 13 27 4 9 -8
10 -16 4 -22z m98 -3 c-9 -11 -15 -12 -25 -3 -11 9 -12 15 -3 25 9 11 15 12
25 3 11 -9 12 -15 3 -25z m100 0 c-9 -11 -15 -12 -25 -3 -11 9 -12 15 -3 25 9
11 15 12 25 3 11 -9 12 -15 3 -25z m100 0 c-9 -11 -15 -12 -25 -3 -11 9 -12
15 -3 25 9 11 15 12 25 3 11 -9 12 -15 3 -25z m100 0 c-9 -11 -15 -12 -25 -3
-11 9 -12 15 -3 25 9 11 15 12 25 3 11 -9 12 -15 3 -25z m100 0 c-9 -11 -15
-12 -25 -3 -11 9 -12 15 -3 25 9 11 15 12 25 3 11 -9 12 -15 3 -25z m100 0
c-9 -11 -15 -12 -25 -3 -11 9 -12 15 -3 25 9 11 15 12 25 3 11 -9 12 -15 3
-25z m111 16 c0 -4 -6 -13 -14 -19 -18 -15 -41 10 -25 26 12 12 39 7 39 -7z
m94 -11 c-8 -14 -34 -11 -34 4 0 8 3 17 7 20 9 9 34 -13 27 -24z m795 -5 c-9
-11 -15 -12 -25 -3 -11 9 -12 15 -3 25 9 11 15 12 25 3 11 -9 12 -15 3 -25z
m100 0 c-9 -11 -15 -12 -25 -3 -11 9 -12 15 -3 25 9 11 15 12 25 3 11 -9 12
-15 3 -25z m100 0 c-9 -11 -15 -12 -25 -3 -11 9 -12 15 -3 25 9 11 15 12 25 3
11 -9 12 -15 3 -25z m100 0 c-9 -11 -15 -12 -25 -3 -11 9 -12 15 -3 25 9 11
15 12 25 3 11 -9 12 -15 3 -25z m97 1 c-5 -14 -9 -15 -21 -5 -12 10 -13 16 -4
27 15 18 34 1 25 -22z m103 -1 c-9 -11 -15 -12 -25 -3 -11 9 -12 15 -3 25 9
11 15 12 25 3 11 -9 12 -15 3 -25z m197 1 c-5 -14 -9 -15 -21 -5 -12 10 -13
16 -4 27 15 18 34 1 25 -22z m103 -1 c-9 -11 -15 -12 -25 -3 -11 9 -12 15 -3
25 9 11 15 12 25 3 11 -9 12 -15 3 -25z m-1499 11 c0 -8 -7 -15 -15 -15 -8 0
-15 7 -15 15 0 8 7 15 15 15 8 0 15 -7 15 -15z m1303 8 c4 -3 2 -12 -4 -20 -9
-10 -15 -10 -25 -2 -8 6 -11 15 -8 20 6 11 28 12 37 2z m-2352 -66 c-5 -5 -17
-7 -26 -3 -14 5 -15 9 -5 21 10 12 16 13 27 4 9 -8 10 -16 4 -22z m100 0 c-5
-5 -17 -7 -26 -3 -14 5 -15 9 -5 21 10 12 16 13 27 4 9 -8 10 -16 4 -22z m98
-3 c-9 -11 -15 -12 -25 -3 -11 9 -12 15 -3 25 9 11 15 12 25 3 11 -9 12 -15 3
-25z m100 0 c-9 -11 -15 -12 -25 -3 -11 9 -12 15 -3 25 9 11 15 12 25 3 11 -9
12 -15 3 -25z m100 0 c-9 -11 -15 -12 -25 -3 -11 9 -12 15 -3 25 9 11 15 12
25 3 11 -9 12 -15 3 -25z m100 0 c-9 -11 -15 -12 -25 -3 -11 9 -12 15 -3 25 9
11 15 12 25 3 11 -9 12 -15 3 -25z m100 0 c-9 -11 -15 -12 -25 -3 -11 9 -12
15 -3 25 9 11 15 12 25 3 11 -9 12 -15 3 -25z m100 0 c-9 -11 -15 -12 -25 -3
-11 9 -12 15 -3 25 9 11 15 12 25 3 11 -9 12 -15 3 -25z m100 0 c-9 -11 -15
-12 -25 -3 -11 9 -12 15 -3 25 9 11 15 12 25 3 11 -9 12 -15 3 -25z m106 26
c4 -6 1 -17 -5 -26 -10 -11 -16 -12 -26 -3 -11 9 -11 15 -3 25 14 17 25 18 34
4z m94 -27 c-15 -18 -34 -1 -25 22 5 14 9 15 21 5 12 -10 13 -16 4 -27z m700
1 c-9 -11 -15 -12 -25 -3 -11 9 -12 15 -3 25 9 11 15 12 25 3 11 -9 12 -15 3
-25z m100 0 c-9 -11 -15 -12 -25 -3 -11 9 -12 15 -3 25 9 11 15 12 25 3 11 -9
12 -15 3 -25z m100 0 c-9 -11 -15 -12 -25 -3 -11 9 -12 15 -3 25 9 11 15 12
25 3 11 -9 12 -15 3 -25z m100 0 c-9 -11 -15 -12 -25 -3 -11 9 -12 15 -3 25 9
11 15 12 25 3 11 -9 12 -15 3 -25z m100 0 c-9 -11 -15 -12 -25 -3 -11 9 -12
15 -3 25 9 11 15 12 25 3 11 -9 12 -15 3 -25z m200 0 c-9 -11 -15 -12 -25 -3
-11 9 -12 15 -3 25 9 11 15 12 25 3 11 -9 12 -15 3 -25z m97 1 c-5 -14 -9 -15
-21 -5 -12 10 -13 16 -4 27 15 18 34 1 25 -22z m100 0 c-5 -14 -9 -15 -21 -5
-12 10 -13 16 -4 27 15 18 34 1 25 -22z m100 0 c-5 -14 -9 -15 -21 -5 -12 10
-13 16 -4 27 15 18 34 1 25 -22z m-396 12 c0 -8 -3 -17 -7 -20 -9 -9 -34 13
-27 24 8 14 34 11 34 -4z m-2254 -62 c-5 -14 -9 -15 -21 -5 -12 10 -13 16 -4
27 15 18 34 1 25 -22z m103 -1 c-9 -11 -15 -12 -25 -3 -11 9 -12 15 -3 25 9
11 15 12 25 3 11 -9 12 -15 3 -25z m100 0 c-9 -11 -15 -12 -25 -3 -11 9 -12
15 -3 25 9 11 15 12 25 3 11 -9 12 -15 3 -25z m100 0 c-9 -11 -15 -12 -25 -3
-11 9 -12 15 -3 25 9 11 15 12 25 3 11 -9 12 -15 3 -25z m100 0 c-9 -11 -15
-12 -25 -3 -11 9 -12 15 -3 25 9 11 15 12 25 3 11 -9 12 -15 3 -25z m100 0
c-9 -11 -15 -12 -25 -3 -11 9 -12 15 -3 25 9 11 15 12 25 3 11 -9 12 -15 3
-25z m100 0 c-9 -11 -15 -12 -25 -3 -11 9 -12 15 -3 25 9 11 15 12 25 3 11 -9
12 -15 3 -25z m100 0 c-9 -11 -15 -12 -25 -3 -11 9 -12 15 -3 25 9 11 15 12
25 3 11 -9 12 -15 3 -25z m100 0 c-9 -11 -15 -12 -25 -3 -11 9 -12 15 -3 25 9
11 15 12 25 3 11 -9 12 -15 3 -25z m100 0 c-9 -11 -15 -12 -25 -3 -11 9 -12
15 -3 25 9 11 15 12 25 3 11 -9 12 -15 3 -25z m104 22 c6 -15 -19 -30 -34 -20
-6 3 -5 11 2 20 15 18 25 18 32 0z m796 -22 c-9 -11 -15 -12 -25 -3 -11 9 -12
15 -3 25 9 11 15 12 25 3 11 -9 12 -15 3 -25z m100 0 c-9 -11 -15 -12 -25 -3
-11 9 -12 15 -3 25 9 11 15 12 25 3 11 -9 12 -15 3 -25z m100 0 c-9 -11 -15
-12 -25 -3 -11 9 -12 15 -3 25 9 11 15 12 25 3 11 -9 12 -15 3 -25z m97 1 c-5
-14 -9 -15 -21 -5 -12 10 -13 16 -4 27 15 18 34 1 25 -22z m100 0 c-5 -14 -9
-15 -21 -5 -12 10 -13 16 -4 27 15 18 34 1 25 -22z m200 0 c-5 -14 -9 -15 -21
-5 -12 10 -13 16 -4 27 15 18 34 1 25 -22z m103 -1 c-9 -11 -15 -12 -25 -3
-11 9 -12 15 -3 25 9 11 15 12 25 3 11 -9 12 -15 3 -25z m97 1 c-5 -14 -9 -15
-21 -5 -12 10 -13 16 -4 27 15 18 34 1 25 -22z m-293 18 c4 -3 2 -12 -4 -20
-9 -10 -15 -10 -25 -2 -8 6 -11 15 -8 20 6 11 28 12 37 2z m-2254 -69 c-9 -11
-15 -12 -25 -3 -11 9 -12 15 -3 25 9 11 15 12 25 3 11 -9 12 -15 3 -25z m100
0 c-9 -11 -15 -12 -25 -3 -11 9 -12 15 -3 25 9 11 15 12 25 3 11 -9 12 -15 3
-25z m100 0 c-9 -11 -15 -12 -25 -3 -11 9 -12 15 -3 25 9 11 15 12 25 3 11 -9
12 -15 3 -25z m100 0 c-9 -11 -15 -12 -25 -3 -11 9 -12 15 -3 25 9 11 15 12
25 3 11 -9 12 -15 3 -25z m100 0 c-9 -11 -15 -12 -25 -3 -11 9 -12 15 -3 25 9
11 15 12 25 3 11 -9 12 -15 3 -25z m100 0 c-9 -11 -15 -12 -25 -3 -11 9 -12
15 -3 25 9 11 15 12 25 3 11 -9 12 -15 3 -25z m100 0 c-9 -11 -15 -12 -25 -3
-11 9 -12 15 -3 25 9 11 15 12 25 3 11 -9 12 -15 3 -25z m100 0 c-9 -11 -15
-12 -25 -3 -11 9 -12 15 -3 25 9 11 15 12 25 3 11 -9 12 -15 3 -25z m100 0
c-9 -11 -15 -12 -25 -3 -11 9 -12 15 -3 25 9 11 15 12 25 3 11 -9 12 -15 3
-25z m100 0 c-9 -11 -15 -12 -25 -3 -11 9 -12 15 -3 25 9 11 15 12 25 3 11 -9
12 -15 3 -25z m800 0 c-9 -11 -15 -12 -25 -3 -11 9 -12 15 -3 25 9 11 15 12
25 3 11 -9 12 -15 3 -25z m100 0 c-9 -11 -15 -12 -25 -3 -11 9 -12 15 -3 25 9
11 15 12 25 3 11 -9 12 -15 3 -25z m96 -3 c-14 -14 -17 -14 -25 -1 -13 21 8
44 27 28 12 -10 12 -14 -2 -27z m104 3 c-9 -11 -15 -12 -25 -3 -11 9 -12 15
-3 25 9 11 15 12 25 3 11 -9 12 -15 3 -25z m100 0 c-9 -11 -15 -12 -25 -3 -11
9 -12 15 -3 25 9 11 15 12 25 3 11 -9 12 -15 3 -25z m300 0 c-9 -11 -15 -12
-25 -3 -11 9 -12 15 -3 25 9 11 15 12 25 3 11 -9 12 -15 3 -25z m95 2 c-5 -13
-9 -14 -20 -5 -11 9 -12 15 -3 26 15 17 32 2 23 -21z m-291 17 c4 -3 2 -12 -4
-20 -9 -10 -15 -10 -25 -2 -8 6 -11 15 -8 20 6 11 28 12 37 2z m97 -7 c0 -21
-21 -31 -30 -15 -5 7 -6 17 -4 21 9 14 34 9 34 -6z m300 1 c0 -8 -3 -17 -7
-20 -9 -9 -34 13 -27 24 8 14 34 11 34 -4z m-2651 -63 c-9 -11 -15 -12 -25 -3
-11 9 -12 15 -3 25 9 11 15 12 25 3 11 -9 12 -15 3 -25z m100 0 c-9 -11 -15
-12 -25 -3 -11 9 -12 15 -3 25 9 11 15 12 25 3 11 -9 12 -15 3 -25z m100 0
c-9 -11 -15 -12 -25 -3 -11 9 -12 15 -3 25 9 11 15 12 25 3 11 -9 12 -15 3
-25z m102 3 c-5 -5 -17 -7 -26 -3 -14 5 -15 9 -5 21 10 12 16 13 27 4 9 -8 10
-16 4 -22z m98 -3 c-9 -11 -15 -12 -25 -3 -11 9 -12 15 -3 25 9 11 15 12 25 3
11 -9 12 -15 3 -25z m100 0 c-9 -11 -15 -12 -25 -3 -11 9 -12 15 -3 25 9 11
15 12 25 3 11 -9 12 -15 3 -25z m100 0 c-9 -11 -15 -12 -25 -3 -11 9 -12 15
-3 25 9 11 15 12 25 3 11 -9 12 -15 3 -25z m100 0 c-9 -11 -15 -12 -25 -3 -11
9 -12 15 -3 25 9 11 15 12 25 3 11 -9 12 -15 3 -25z m100 0 c-9 -11 -15 -12
-25 -3 -11 9 -12 15 -3 25 9 11 15 12 25 3 11 -9 12 -15 3 -25z m102 3 c-5 -5
-17 -7 -26 -3 -14 5 -15 9 -5 21 10 12 16 13 27 4 9 -8 10 -16 4 -22z m898 -3
c-9 -11 -15 -12 -25 -3 -11 9 -12 15 -3 25 9 11 15 12 25 3 11 -9 12 -15 3
-25z m100 0 c-9 -11 -15 -12 -25 -3 -11 9 -12 15 -3 25 9 11 15 12 25 3 11 -9
12 -15 3 -25z m100 0 c-9 -11 -15 -12 -25 -3 -11 9 -12 15 -3 25 9 11 15 12
25 3 11 -9 12 -15 3 -25z m100 0 c-9 -11 -15 -12 -25 -3 -11 9 -12 15 -3 25 9
11 15 12 25 3 11 -9 12 -15 3 -25z m100 0 c-9 -11 -15 -12 -25 -3 -11 9 -12
15 -3 25 9 11 15 12 25 3 11 -9 12 -15 3 -25z m100 0 c-9 -11 -15 -12 -25 -3
-11 9 -12 15 -3 25 9 11 15 12 25 3 11 -9 12 -15 3 -25z m197 1 c-5 -14 -9
-15 -21 -5 -12 10 -13 16 -4 27 15 18 34 1 25 -22z m100 0 c-5 -14 -9 -15 -21
-5 -12 10 -13 16 -4 27 15 18 34 1 25 -22z m-193 18 c4 -3 2 -12 -4 -20 -9
-10 -15 -10 -25 -2 -8 6 -11 15 -8 20 6 11 28 12 37 2z m-2354 -69 c-9 -11
-15 -12 -25 -3 -11 9 -12 15 -3 25 9 11 15 12 25 3 11 -9 12 -15 3 -25z m100
0 c-9 -11 -15 -12 -25 -3 -11 9 -12 15 -3 25 9 11 15 12 25 3 11 -9 12 -15 3
-25z m97 1 c-5 -14 -9 -15 -21 -5 -12 10 -13 16 -4 27 15 18 34 1 25 -22z
m105 2 c-5 -5 -17 -7 -26 -3 -14 5 -15 9 -5 21 10 12 16 13 27 4 9 -8 10 -16
4 -22z m98 -3 c-9 -11 -15 -12 -25 -3 -11 9 -12 15 -3 25 9 11 15 12 25 3 11
-9 12 -15 3 -25z m100 0 c-9 -11 -15 -12 -25 -3 -11 9 -12 15 -3 25 9 11 15
12 25 3 11 -9 12 -15 3 -25z m100 0 c-9 -11 -15 -12 -25 -3 -11 9 -12 15 -3
25 9 11 15 12 25 3 11 -9 12 -15 3 -25z m100 0 c-9 -11 -15 -12 -25 -3 -11 9
-12 15 -3 25 9 11 15 12 25 3 11 -9 12 -15 3 -25z m100 0 c-9 -11 -15 -12 -25
-3 -11 9 -12 15 -3 25 9 11 15 12 25 3 11 -9 12 -15 3 -25z m900 0 c-9 -11
-15 -12 -25 -3 -11 9 -12 15 -3 25 9 11 15 12 25 3 11 -9 12 -15 3 -25z m100
0 c-9 -11 -15 -12 -25 -3 -11 9 -12 15 -3 25 9 11 15 12 25 3 11 -9 12 -15 3
-25z m100 0 c-9 -11 -15 -12 -25 -3 -11 9 -12 15 -3 25 9 11 15 12 25 3 11 -9
12 -15 3 -25z m100 0 c-9 -11 -15 -12 -25 -3 -11 9 -12 15 -3 25 9 11 15 12
25 3 11 -9 12 -15 3 -25z m100 0 c-9 -11 -15 -12 -25 -3 -11 9 -12 15 -3 25 9
11 15 12 25 3 11 -9 12 -15 3 -25z m100 0 c-9 -11 -15 -12 -25 -3 -11 9 -12
15 -3 25 9 11 15 12 25 3 11 -9 12 -15 3 -25z m300 0 c-9 -11 -15 -12 -25 -3
-11 9 -12 15 -3 25 9 11 15 12 25 3 11 -9 12 -15 3 -25z m97 1 c-5 -14 -9 -15
-21 -5 -12 10 -13 16 -4 27 15 18 34 1 25 -22z m-293 18 c4 -3 2 -12 -4 -20
-9 -10 -15 -10 -25 -2 -8 6 -11 15 -8 20 6 11 28 12 37 2z m97 -7 c0 -8 -4
-17 -8 -20 -13 -8 -35 11 -28 23 10 16 36 14 36 -3z m-2449 -59 c-5 -5 -17 -7
-26 -3 -14 5 -15 9 -5 21 10 12 16 13 27 4 9 -8 10 -16 4 -22z m98 -3 c-9 -11
-15 -12 -25 -3 -11 9 -12 15 -3 25 9 11 15 12 25 3 11 -9 12 -15 3 -25z m97 1
c-5 -14 -9 -15 -21 -5 -12 10 -13 16 -4 27 15 18 34 1 25 -22z m100 0 c-5 -14
-9 -15 -21 -5 -12 10 -13 16 -4 27 15 18 34 1 25 -22z m103 -1 c-9 -11 -15
-12 -25 -3 -11 9 -12 15 -3 25 9 11 15 12 25 3 11 -9 12 -15 3 -25z m100 0
c-9 -11 -15 -12 -25 -3 -11 9 -12 15 -3 25 9 11 15 12 25 3 11 -9 12 -15 3
-25z m100 0 c-9 -11 -15 -12 -25 -3 -11 9 -12 15 -3 25 9 11 15 12 25 3 11 -9
12 -15 3 -25z m100 0 c-9 -11 -15 -12 -25 -3 -11 9 -12 15 -3 25 9 11 15 12
25 3 11 -9 12 -15 3 -25z m97 4 c-23 -13 -40 0 -25 18 9 11 15 12 26 2 12 -10
12 -13 -1 -20z m1003 -4 c-9 -11 -15 -12 -25 -3 -11 9 -12 15 -3 25 9 11 15
12 25 3 11 -9 12 -15 3 -25z m97 1 c-5 -14 -9 -15 -21 -5 -12 10 -13 16 -4 27
15 18 34 1 25 -22z m103 -1 c-9 -11 -15 -12 -25 -3 -11 9 -12 15 -3 25 9 11
15 12 25 3 11 -9 12 -15 3 -25z m100 0 c-9 -11 -15 -12 -25 -3 -11 9 -12 15
-3 25 9 11 15 12 25 3 11 -9 12 -15 3 -25z m100 0 c-9 -11 -15 -12 -25 -3 -11
9 -12 15 -3 25 9 11 15 12 25 3 11 -9 12 -15 3 -25z m100 0 c-9 -11 -15 -12
-25 -3 -11 9 -12 15 -3 25 9 11 15 12 25 3 11 -9 12 -15 3 -25z m95 2 c-5 -13
-9 -14 -20 -5 -11 9 -12 15 -3 26 15 17 32 2 23 -21z m205 -2 c-9 -11 -15 -12
-25 -3 -11 9 -12 15 -3 25 9 11 15 12 25 3 11 -9 12 -15 3 -25z m-99 13 c0 -8
-3 -17 -7 -20 -9 -9 -34 13 -27 24 8 14 34 11 34 -4z m-2451 -63 c-9 -11 -15
-12 -25 -3 -11 9 -12 15 -3 25 9 11 15 12 25 3 11 -9 12 -15 3 -25z m100 0
c-9 -11 -15 -12 -25 -3 -11 9 -12 15 -3 25 9 11 15 12 25 3 11 -9 12 -15 3
-25z m100 0 c-9 -11 -15 -12 -25 -3 -11 9 -12 15 -3 25 9 11 15 12 25 3 11 -9
12 -15 3 -25z m100 0 c-9 -11 -15 -12 -25 -3 -11 9 -12 15 -3 25 9 11 15 12
25 3 11 -9 12 -15 3 -25z m100 0 c-9 -11 -15 -12 -25 -3 -11 9 -12 15 -3 25 9
11 15 12 25 3 11 -9 12 -15 3 -25z m100 0 c-9 -11 -15 -12 -25 -3 -11 9 -12
15 -3 25 9 11 15 12 25 3 11 -9 12 -15 3 -25z m100 0 c-9 -11 -15 -12 -25 -3
-11 9 -12 15 -3 25 9 11 15 12 25 3 11 -9 12 -15 3 -25z m100 0 c-9 -11 -15
-12 -25 -3 -11 9 -12 15 -3 25 9 11 15 12 25 3 11 -9 12 -15 3 -25z m1000 0
c-9 -11 -15 -12 -25 -3 -11 9 -12 15 -3 25 9 11 15 12 25 3 11 -9 12 -15 3
-25z m97 1 c-5 -14 -9 -15 -21 -5 -12 10 -13 16 -4 27 15 18 34 1 25 -22z
m100 0 c-5 -14 -9 -15 -21 -5 -12 10 -13 16 -4 27 15 18 34 1 25 -22z m103 -1
c-9 -11 -15 -12 -25 -3 -11 9 -12 15 -3 25 9 11 15 12 25 3 11 -9 12 -15 3
-25z m100 0 c-9 -11 -15 -12 -25 -3 -11 9 -12 15 -3 25 9 11 15 12 25 3 11 -9
12 -15 3 -25z m100 0 c-9 -11 -15 -12 -25 -3 -11 9 -12 15 -3 25 9 11 15 12
25 3 11 -9 12 -15 3 -25z m97 1 c-5 -14 -9 -15 -21 -5 -12 10 -13 16 -4 27 15
18 34 1 25 -22z m303 -1 c-6 -7 -17 -10 -25 -7 -17 6 -18 15 -2 31 17 17 43
-5 27 -24z m-199 13 c0 -8 -3 -17 -7 -20 -9 -9 -34 13 -27 24 8 14 34 11 34
-4z m100 -1 c0 -21 -21 -31 -31 -15 -14 22 -11 29 11 29 11 0 20 -6 20 -14z"/>
<path d="M2763 441 c-349 -351 -428 -437 -411 -439 16 -3 112 87 435 411 355
354 414 417 411 439 -3 23 -55 -27 -435 -411z"/>
<path d="M2808 387 c-305 -309 -373 -383 -356 -385 29 -5 748 711 748 745 0
13 -3 23 -7 22 -5 0 -178 -172 -385 -382z"/>
<path d="M2863 339 c-265 -266 -328 -335 -312 -337 32 -5 652 616 647 648 -2
19 -57 -32 -335 -311z"/>
<path d="M2910 285 c-223 -223 -280 -285 -262 -285 35 0 555 520 550 549 -2
17 -58 -34 -288 -264z"/>
<path d="M2960 235 c-196 -196 -231 -235 -210 -235 37 0 453 418 448 449 -2
17 -47 -22 -238 -214z"/>
<path d="M3011 188 c-156 -156 -180 -184 -161 -186 33 -5 353 314 348 347 -2
19 -32 -6 -187 -161z"/>
<path d="M3060 135 c-113 -113 -131 -135 -110 -135 36 1 253 218 248 249 -2
18 -25 0 -138 -114z"/>
<path d="M3110 85 c-74 -75 -82 -85 -59 -85 35 0 152 118 147 149 -3 19 -15
10 -88 -64z"/>
<path d="M3161 36 l-35 -36 26 0 c31 0 51 21 46 50 -3 20 -6 19 -37 -14z"/>
</g>
</svg>
